<svg xmlns="http://www.w3.org/2000/svg" xmlns:xlink="http://www.w3.org/1999/xlink" width="80.825" height="88.188" viewBox="0 0 21.385 23.333" xmlns:v="https://vecta.io/nano"><defs><linearGradient id="A" x1="12.89" y1="102.17" x2="52.21" y2="88.47" xlink:href="#N"><stop offset="0" stop-color="#787c80"/><stop offset="1" stop-color="#dbe2e9"/></linearGradient><linearGradient id="B" x1="43.86" y1="77.52" x2="55.73" y2="72.55" xlink:href="#N"><stop offset="0" stop-color="#fff"/><stop offset="1" stop-color="#eceff3"/></linearGradient><linearGradient id="C" x1="41.55" y1="84.25" x2="48.49" y2="71.69" xlink:href="#N"><stop offset="0" stop-color="#bcc7d5"/><stop offset="1" stop-color="#fff"/></linearGradient><linearGradient id="D" y2="53.92" x2="22.24" y1="74.8" x1="22.24" xlink:href="#N"><stop stop-color="#dbf9ea" offset="0"/><stop stop-color="#fff" offset=".97"/></linearGradient><linearGradient id="E" x1="1.61" y1="86.95" x2="42.77" y2="86.95" xlink:href="#N"><stop offset="0" stop-color="#fff"/><stop offset="1" stop-color="#dbe2e9"/></linearGradient><linearGradient id="F" x1="36.47" y1="63.79" x2="-3.71" y2="63.79" xlink:href="#N"><stop offset="0" stop-color="#fff"/><stop offset="1" stop-color="#dbe2e9"/></linearGradient><linearGradient id="G" y2="68.76" x2="-.16" y1="68.76" x1="34.57" xlink:href="#N"><stop stop-color="#d1985c" offset="0"/><stop stop-color="#534741" offset="1"/></linearGradient><linearGradient id="H" x1="29.67" y1="1.99" x2="29.67" y2="68.13" xlink:href="#N"><stop offset="0" stop-color="#fff" stop-opacity=".784"/><stop offset="1" stop-color="#fff" stop-opacity="0"/></linearGradient><linearGradient id="I" x1="42.71" y1="64.29" x2="42.77" y2="64.29" xlink:href="#N"><stop stop-color="#5d278f" offset="0"/><stop stop-color="#292376" offset="1"/></linearGradient><linearGradient id="J" x1="18.74" y1="120.02" x2="76.92" y2="126.53" xlink:href="#N"><stop offset="0" stop-color="#787c80"/><stop offset="1" stop-color="#dbe2e9"/></linearGradient><linearGradient id="K" x1="46.117" y1="29.514" x2="90.34" y2="34.165" xlink:href="#N"><stop stop-color="#147bd1" offset="0"/><stop stop-color="#05c3dd" offset="1"/></linearGradient><linearGradient id="L" x1="55.19" y1="38.865" x2="90.12" y2="38.865" xlink:href="#N"><stop offset="0" stop-color="#aaafb5"/><stop offset="1" stop-color="#fff"/></linearGradient><path id="M" d="M39.17 63.8h0c0 6.74-10.16 9.76-16.87 9.76a24.48 24.48 0 0 1-12-2.87c-3.32-1.92-5-4.45-5-7h0C5.33 57 15.44 54 22.2 54s16.97 3.05 16.97 9.8z"/><linearGradient id="N" gradientUnits="userSpaceOnUse"/></defs><g transform="matrix(.264583 0 0 .264583 -234.241331 -57.28916)"><g transform="matrix(.591212 0 0 .591212 388.67863 117.75201)"><g transform="translate(917.417 206.067)"><path d="M45.66 87.24c-8.4-4.85-22-4.85-30.33 0S7 100 15.43 104.8s22 4.85 30.33 0 8.3-12.72-.1-17.57" fill="url(#A)"/><path d="M50.6 64.12c-2-1.18-4.82-1.06-7.9.63a7 7 0 0 0 .06-.93 7.46 7.46 0 0 0-.55-2.82 6.25 6.25 0 0 1 4.16.69z" fill="#fff"/><path d="M54 71.52c0 7.23-5 16.06-11.3 19.82v-4.1c4.3-2.63 7.75-8.7 7.73-13.67s-3.42-7-7.67-4.77v-4.08C49 61.36 54 64.34 54 71.52z" fill="url(#B)"/><path d="M50.43 73.57c0 5-3.43 11-7.73 13.67v-6.5a17.11 17.11 0 0 0 3.48-9.64 7.4 7.4 0 0 0-.63-3.19 4.24 4.24 0 0 1 2.53.52c1.45.84 2.35 2.6 2.35 5.13z" fill="url(#C)"/><use xlink:href="#M" fill="url(#D)"/><path d="M42.77 63.84l-.1 34.5c0 8.14-12.25 11.83-20.46 11.83S1.6 106.44 1.6 98.24h0l.1-34.5c0 8.2 12.34 11.93 20.6 11.93S42.75 72 42.77 63.84z" fill="url(#E)"/><path d="M22.17 51.9c8.28 0 20.6 3.74 20.6 11.93S30.46 75.67 22.3 75.67 1.7 72 1.7 63.74 14 51.9 22.17 51.9zM10.3 70.72a24.59 24.59 0 0 0 12 2.87c6.72 0 16.87-3 16.87-9.78S29 54 22.2 54 5.3 57 5.3 63.75c0 2.53 1.67 5 5 7" fill="#fff"/><use xlink:href="#M" fill="url(#F)"/><path d="M7.65 68.7a12.61 12.61 0 0 0 2.65 2 24.48 24.48 0 0 0 12 2.87c4.75 0 11.2-1.5 14.6-4.78.2-.2-3.74-2.5-4.1-2.64-.66-.3-1.4-.44-2-.74a13.18 13.18 0 0 0-2.54-1.36 8.07 8.07 0 0 0-3 0c-1.55.2-2.85-.08-4.36 0a24.46 24.46 0 0 0-4.82.69 23.72 23.72 0 0 0-4.71 1.58c-.37.1-3.9 2.2-3.72 2.38z" fill="url(#G)"/><path d="M13.46 59.2c-2.16-5.46 2-12.68-1.9-17.1-1.58-1.8-4-2.46-6.07-3.7a11.61 11.61 0 0 1-1-19c2.64-2.05 6.1-2.9 8.56-5.16 2.22-2 3.37-5 4.75-7.64S21.1 1.17 24 .3a10.06 10.06 0 0 1 6.12.46 13.38 13.38 0 0 1 5.06 2.93c4.9 4.83 3.9 13.93 9.46 18 2.72 2 6.37 2.2 9.32 3.86a11 11 0 0 1 4.79 13c-1.48 4-5.2 6.75-9.12 8.42s-8.14 2.5-12.13 4a6.83 6.83 0 0 0-2.5 1.38c-1.54 1.54-1.44 4-2.2 6.1-1 2.75-3.5 4.63-5.9 6.34-1 .72-3.34 3.18-4.54 3.2s-2.26-1.57-3.12-2.33c-2.18-1.92-4.7-3.66-5.8-6.45z" fill="url(#H)"/><path d="M42.77 63.84v.88a.09.09 0 0 0-.06 0 6.73 6.73 0 0 0 .06-.88z" fill="url(#I)"/></g><g transform="translate(839.743 166.853)"><path d="M23.76 111.27c-11 6.37-11.1 16.7-.13 23.07s28.8 6.37 39.82 0 11.1-16.7.14-23.07-28.8-6.37-39.83 0z" fill="url(#J)"/><path d="M9.1 116.107v7.6c0 4.15 2.73 8.3 8.18 11.45 11 6.37 28.8 6.37 39.82 0 5.55-3.2 8.33-7.4 8.32-11.62v-7.58c0 4.2-2.77 8.4-8.32 11.62-11 6.36-28.86 6.36-39.82 0-5.44-3.17-8.16-7.3-8.18-11.46z" fill="#f6416c"/><path d="M17.4 104.92c-11 6.37-11.1 16.7-.13 23.06s28.8 6.37 39.82 0 11.1-16.7.13-23.08-28.8-6.35-39.82.02z" fill="#f87091"/><path d="M37.15 111.6a3.1 3.1 0 0 1-1.48-.47 6.21 6.21 0 0 1-1.47-1.23v6.63l3 1.7z" fill="#eff2f5"/><path d="M39.78 109.9l-2.93 1.7-.02 6.63 2.93-1.7z" fill="#fff"/><path d="M38.48 99.93a2.4 2.4 0 0 1 2.45.24 7.57 7.57 0 0 1 3.44 5.94 2.42 2.42 0 0 1-1 2.21L35.3 113a2.41 2.41 0 0 0 1-2.21 7.56 7.56 0 0 0-3.43-6 2.44 2.44 0 0 0-2.45-.24z" fill="#0d9dd7"/><path d="M33.17 104.85c-1.9-1.1-3.45-.2-3.45 2a7.55 7.55 0 0 0 3.42 6c1.9 1.1 3.46.22 3.46-2a7.56 7.56 0 0 0-3.43-6z" fill="#147bd1"/><path d="M9.2 42.07a2 2 0 0 1-2.48.44l26 60.9a2 2 0 0 1 2.47-.44z" fill="#eff2f5"/><path d="M11.83 40.37l-2.93 1.7 26.02 60.9 2.93-1.7zM58.78 59.7c-3.45 0-5.46-2.05-5.46-5.85C53.32 40.72 74.7 18 86.57 18 90 18 92 20.1 92 23.88 92 37 70.68 59.7 58.78 59.7zM89.5 29.4a15 15 0 0 0 .66-4.07c0-3.43-1.82-5.3-4.93-5.3-10.78 0-30 20.55-30 32.38 0 3.43 1.8 5.3 4.92 5.3 9.22 0 25.67-15.7 29.35-28.3" fill="#fff"/><path d="M9.07 31.08a2.42 2.42 0 0 1 2.45.24 7.55 7.55 0 0 1 3.43 6 2.39 2.39 0 0 1-1 2.2l-8.07 4.64a2.42 2.42 0 0 0 1-2.21 7.6 7.6 0 0 0-3.44-6A2.43 2.43 0 0 0 1 35.76z" fill="#0d9dd7"/><path d="M3.75 36C1.85 34.9.3 35.8.3 38a7.56 7.56 0 0 0 3.43 5.94c1.9 1.1 3.45.22 3.46-2A7.6 7.6 0 0 0 3.749 36z" fill="#147bd1"/><path d="M8.22 35.87a7.66 7.66 0 0 1 1.48 3.83l37.62-3.5v-3.7l-2.95-1.7v1.7z" fill="#fff"/><path d="M47.3 31.1l-36.16 3.36-2.93 1.7 36.16-3.35z" fill="#eff2f5"/><path d="M86.57 18a5.47 5.47 0 0 1 3.77 1.26C83.63 13.5 76 9.86 67.1 9.86a26.93 26.93 0 0 0-7.52 1.06c-6.33 1.85-14.84 11.23-16 17.8a23.74 23.74 0 0 0-.41 4.76c0 9.7 4.9 18.64 11.9 25a5.92 5.92 0 0 1-1.69-4.59C53.32 40.76 74.64 18 86.57 18z" fill="url(#K)"/><path d="M31.34 14.47a14.3 14.3 0 0 1 23.87-10.58l7.32 6.6-2.77.64c-6.32 1.85-14.83 11.23-16 17.8-.2 1.32-.3 2.1-.35 2.8l-7.32-6.6a1.79 1.79 0 0 1-.27-.28 1.79 1.79 0 0 0 .27.28 14.22 14.22 0 0 1-4.75-10.65z" fill="#147bd1"/><path d="M89.5 29.4C85.82 42 69.37 57.7 60.1 57.7c-3.1 0-4.92-1.86-4.92-5.3 0-11.83 19.26-32.38 30-32.38 3.1 0 4.93 1.86 4.93 5.3a15 15 0 0 1-.66 4.07" fill="url(#L)"/><path d="M73.32 25.3a12.93 12.93 0 1 1-14.21 15.78 58.18 58.18 0 0 1 14.21-15.78z" fill="#fff"/></g></g><g fill="#393d47"><path d="M934.583 290.443l2.713-.234-.004.74-1.962.118 1.525 1.24-.428.604-2.067-1.777z"/><path d="M937.333 291.82q.054-.33.206-.602.15-.273.4-.45.25-.184.592-.253.35-.075.802 0 .27.045.484.12.213.075.424.203l-.28.6q-.122-.067-.278-.125-.148-.064-.394-.105-.284-.047-.5-.008-.198.034-.334.137-.135.097-.215.256-.08.16-.1.353-.07.42.123.697.2.278.767.372.187.03.4.038.2.008.388-.022l.008.67q-.178.037-.424.036-.246.006-.57-.048-.465-.077-.78-.255-.3-.177-.487-.425-.178-.248-.233-.556-.05-.306.007-.642zm5.857.603q-.018.366-.138.66-.12.3-.32.495-.2.206-.474.3-.267.105-.594.088-.327-.016-.6-.147-.255-.13-.44-.356-.18-.225-.268-.524-.1-.306-.07-.67.018-.36.137-.648.126-.295.326-.494.207-.206.48-.303.274-.104.587-.1.32.016.575.147.262.124.44.35.186.22.275.525.1.3.072.658zm-2.077-.097q-.02.412.1.673.137.262.464.28.314.016.483-.23.176-.247.197-.658.02-.412-.117-.667-.13-.262-.458-.278-.314-.016-.5.23-.17.24-.2.652zm3.113.046q.02.412.183.666.17.254.5.237.098-.004.183-.015.085-.01.175-.028l-.08-1.672q-.094-.048-.213-.075-.12-.034-.25-.027-.287.014-.407.25-.12.235-.1.666zm1.88 1.376q-.22.083-.537.144-.318.06-.625.076-.72.035-1.1-.372-.386-.407-.422-1.145-.036-.75.25-1.197.292-.453.9-.482.163-.008.322.024.158.025.28.085l-.067-1.398.797-.176zm.42-1.445q-.066-.4.007-.724.073-.323.24-.556.166-.24.407-.385.24-.146.512-.2.67-.1 1.085.232.413.336.538 1.098.013.077.02.162.014.084.016.137l-1.968.324q.05.297.323.43.273.127.66.064.24-.04.443-.126.2-.088.35-.164l.22.66q-.195.105-.42.188-.224.1-.514.138-.387.064-.713.018-.32-.053-.572-.2-.246-.165-.4-.436-.164-.27-.228-.66zm1.98-.65q-.02-.123-.07-.227-.05-.1-.137-.2-.086-.08-.204-.112-.12-.04-.28-.014-.155.026-.263.096-.1.07-.164.173-.056.102-.082.226-.02.122-.013.247zm2.714 2.34l-.8.25.06-5.94.786-.246zm3.796-4.19l-1.756 2.085-.525-.525 1.313-1.47-1.96.2-.117-.733 2.716-.203z"/></g></g></svg>