<svg xmlns="http://www.w3.org/2000/svg" xmlns:xlink="http://www.w3.org/1999/xlink" width="80.493" height="110.566" viewBox="0 0 21.297 29.254" xmlns:v="https://vecta.io/nano"><defs><linearGradient id="A" y2="174.02" x2="30.7" y1="160.52" x1="123.7" xlink:href="#N"><stop stop-color="#dbe2e9" offset="0"/><stop stop-color="#787c80" offset="1"/></linearGradient><linearGradient xlink:href="#C" id="B"/><linearGradient y2="115.22" x2="55.67" y1="120.14" x1="71.4" id="C" xlink:href="#N"><stop stop-color="#dbf9ea" offset="0"/><stop stop-color="#c0dde2" offset="1"/></linearGradient><linearGradient xlink:href="#C" id="D" x1="39.98" y1="126.53" x2="39.93" y2="126.51"/><linearGradient xlink:href="#C" id="E" x1="37.77" y1="112.78" x2="80.82" y2="112.78"/><linearGradient xlink:href="#G" id="F" x1="28.07" y1="155.59" x2="108.4" y2="155.59"/><linearGradient id="G" xlink:href="#N"><stop offset="0" stop-color="#dbe2e9"/><stop offset="1" stop-color="#fff"/></linearGradient><linearGradient id="H" x1="109.61" y1="157.36" x2="66.94" y2="144.03" xlink:href="#N"><stop offset="0" stop-color="#fff"/><stop offset="1" stop-color="#dbe2e9"/></linearGradient><linearGradient xlink:href="#G" id="I" x1="3.4" y1="138.61" x2="137.53" y2="138.61"/><linearGradient id="J" y2="89.78" x2="139.86" y1="75.28" x1="-10.39" xlink:href="#N"><stop stop-color="#147bd1" offset="0"/><stop stop-color="#05c3dd" offset="1"/></linearGradient><linearGradient id="K" y2="91.98" x2="78.65" y1="56.52" x1="17.23" xlink:href="#N"><stop stop-opacity=".25" stop-color="#fff" offset="0"/><stop stop-opacity="0" stop-color="#dbf9ea" offset="1"/></linearGradient><linearGradient id="L" y2="15.38" x2="57.22" y1="10.25" x1="-8.42" xlink:href="#N"><stop stop-color="#f67997" offset="0"/><stop stop-color="#f6416c" offset="1"/></linearGradient><path id="M" d="M76.14 105.46a1.92 1.92 0 0 0-.83 1.06 1.48 1.48 0 0 0-.1.27l-1.08 4-29.5 17.14-2.07-1.2a2.59 2.59 0 0 0-2.56-.27l4.14-2.42z"/><linearGradient id="N" gradientUnits="userSpaceOnUse"/></defs><g transform="matrix(.154851 0 0 .154851 -52.20262 -63.688478)"><g transform="translate(337.114 411.256)"><path d="M83.6 147.35l31.12 14.73a2.93 2.93 0 0 1 .23 5.18l-32.62 19.1a11.72 11.72 0 0 1-12.86-.67L45.28 168a2 2 0 0 1 .17-3.34l28.83-16.87a10 10 0 0 1 9.32-.44z" fill="url(#A)"/><use xlink:href="#M" fill="url(#B)"/><path d="M40 126.48h0a.55.55 0 0 0-.14.09z" fill="url(#D)"/><use xlink:href="#M" fill="url(#B)"/><path d="M73.94 101.66c1.24-.72 3-.6 4.8.47l2.07 1.2-36.17 21-2.07-1.2c-1.85-1.07-3.57-1.2-4.8-.47z" fill="url(#E)"/><path d="M44.63 127.93l.02-3.6 30.66-17.82 5.5-3.2v3.6l-6.66 3.88z" fill="#e6e6e6"/><path d="M108.4 162.14v3.56a2.92 2.92 0 0 1-1.46 2.56l-32.62 19.08a11.72 11.72 0 0 1-12.86-.66L34.8 167.15a14.15 14.15 0 0 1-5.35-6.15 11.17 11.17 0 0 1-1.16-7.42l7.7-28.43a3.87 3.87 0 0 1 1.8-2.5l.26-.13.27-.1a2.8 2.8 0 0 1 .5-.12.75.75 0 0 1 .26 0 2.86 2.86 0 0 1 .42 0 6 6 0 0 1 3 .92l1.57.9.5.3v3.6l-2.07-1.2a2.59 2.59 0 0 0-2.56-.27.55.55 0 0 0-.14.09.83.83 0 0 0-.16.12.55.55 0 0 0-.1.11.77.77 0 0 0-.15.16.38.38 0 0 0-.08.11 1.1 1.1 0 0 0-.15.26v.06a3.58 3.58 0 0 0-.15.43l-7.7 28.47a6 6 0 0 0 .61 4 7.67 7.67 0 0 0 2.89 3.3l2.72 2 23.93 17.45a11.74 11.74 0 0 0 12.86.66l32.62-19.1a2.89 2.89 0 0 0 1.46-2.53z" fill="url(#F)"/><path d="M31.32 156.28L39 127.8a2.11 2.11 0 0 1 .93-1.32l36.18-21a2.06 2.06 0 0 0-.94 1.32l-7.72 28.47a6 6 0 0 0 .62 4 7.25 7.25 0 0 0 2.72 3.26l35.9 17a2.94 2.94 0 0 1 .23 5.19l-32.58 19.03a11.74 11.74 0 0 1-12.86-.66l-26.65-19.53a7.59 7.59 0 0 1-2.88-3.3 6 6 0 0 1-.62-3.99z" fill="url(#H)"/><path d="M7.07 70.2L127 1c2-1.13 3.76-1.24 5-.5l3.17 1.84c-1.3-.75-3.08-.65-5.05.5L10.24 72a15.56 15.56 0 0 0-7.07 12.28l.28 97.9c0 2.24.8 3.8 2.07 4.55l-3.16-1.84c-1.28-.74-2.06-2.3-2.07-4.54L0 82.44a15.59 15.59 0 0 1 7.07-12.25z" fill="#fff"/><path d="M3.4 167.42l.05 14.76c0 4.5 3.2 6.3 7.12 4L130.46 117a15.61 15.61 0 0 0 7.07-12.24L137.48 90 3.4 167.42" fill="url(#I)"/><path d="M10.23 72a15.62 15.62 0 0 0-7.07 12.28l.24 83.14L137.48 90l-.24-83.14c0-4.5-3.2-6.32-7.1-4.06L10.23 72" fill="#393d47"/><path d="M130.87 85.22l-.2-74.1-120.9 69.8.2 74.1 120.9-69.8" fill="url(#J)"/><path d="M70.67 136.1a8.19 8.19 0 0 0-3.67 6.43c0 2.37 1.68 3.32 3.74 2.13a7.72 7.72 0 0 0 2.76-3c-1 .13-1.7-.57-1.7-1.88a6 6 0 0 1 1.7-3.84 2.53 2.53 0 0 0-2.77.18" fill="#787c80"/><path d="M40 126.48h0a.55.55 0 0 0-.14.09z" fill="url(#D)"/><path d="M130.13 2.8L10.23 72a15.62 15.62 0 0 0-7.07 12.28l.24 83.14z" fill="url(#K)"/></g><path d="M26.8 0l27 15.57-17.86 10.36a4.4 4.4 0 0 1-5.88-1.38l-3.15-4.8-9 1.8a15 15 0 0 1-10.42-1.7L0 15.57z" fill="url(#L)" transform="rotate(121.676 60.677 353.176)"/><path d="M356.43 499.678l5.73-.165 3.186-8.6a14.81 14.81 0 0 1 3.334-5.251h0l-15.19 15.304a4.4 4.4 0 0 1 2.938-1.277z" fill="#f6416c"/></g></svg>