<svg xmlns="http://www.w3.org/2000/svg" xmlns:xlink="http://www.w3.org/1999/xlink" width="198.637" height="288.348" viewBox="0 0 52.556 76.292" xmlns:v="https://vecta.io/nano"><g transform="matrix(.280728 0 0 .280728 -593.91483 -689.15951)"><g fill="#75507b" transform="matrix(3.514491 0 0 3.514491 2134.9168 2451.3889)"><path d="M47.78 35.473c-.006 2.04-.725 3.475-1.886 4.15l-5.382 3.126c1.16-.675 1.882-2.1 1.888-4.15.01-3.857-2.537-8.506-5.808-10.866.01-4.106-2.877-9.108-6.45-11.17-1.428-.826-2.75-1.057-3.82-.773-1.627-4.267-4.725-8.3-8.285-10.356-2.65-1.53-5.05-1.67-6.784-.665l5.38-3.126c1.734-1.006 4.134-.866 6.784.665 3.56 2.055 6.657 6.1 8.285 10.356 1.073-.283 2.393-.054 3.823.77 3.572 2.063 6.46 7.063 6.447 11.17 3.27 2.362 5.818 7 5.808 10.868z" fill="#b4e2f1"/><path d="M13.872 7.153l-5.38 3.128c-1.64-.733-3.1-.72-4.215-.078L9.66 7.075c1.103-.64 2.573-.653 4.213.078z" fill="#adcdf0"/><path d="M18.038 5.435c3.56 2.055 6.657 6.1 8.284 10.355 1.072-.283 2.394-.053 3.822.772 3.572 2.062 6.46 7.064 6.447 11.17 3.272 2.36 5.82 7 5.808 10.867-.012 4.105-2.916 5.763-6.5 3.7L9.253 26.908c-3.897-2.25-7.045-7.704-7.033-12.182.012-4.16 2.753-6.016 6.272-4.445.3-5.606 4.46-7.783 9.546-4.846z" fill="#c7e9f5"/></g><path d="M2185.207 2725.68l59.682-34.458c1.6-.91 1.398-2.532-.456-3.598l-57.28-33c-1.822-1.06-4.637-1.18-6.23-.255l-59.687 34.458c-1.594.91-1.394 2.532.455 3.598l57.284 33c1.845 1.06 4.637 1.18 6.23.255z" opacity=".4" fill="#d6d8e5"/><path d="M2179.58 2522.838l63.43 36.63-63.43 36.62-63.43-36.62z" fill="#e9eaf4"/><path d="M2179.58 2726.668v-130.58l-63.43-36.62v130.57z" fill="#dfe0ea"/><path d="M2243.01 2559.468l-63.43 36.62v130.58l63.43-36.62z" fill="#d5d6e0"/><g fill="#2b303f"><path d="M2190.15 2597.728l10.98-6.34v12.68l-10.98 6.34zm14.33-8.27l31.45-18.16v12.68l-31.45 18.16z"/><use xlink:href="#B"/><use xlink:href="#C"/><use xlink:href="#B" y="22.983"/><use xlink:href="#C" y="22.98"/><use xlink:href="#B" y="45.965"/><use xlink:href="#C" y="45.96"/><path d="M2201.13 2683.318v12.68l-10.98 6.34v-12.68zm34.8-20.1v12.68l-31.45 18.16v-12.68z"/></g><path d="M2179.58 2726.668l-63.43-36.63v-7.3l63.43 35.96 63.43-37.26v8.62z" fill="#00a9e0"/><path d="M2180.94 2560.328a9.27 9.27 0 0 1-4.16 0l-3.16 1.82a16.11 16.11 0 0 0 10.49 0zm3.06-1.75l3.17 1.83a3.78 3.78 0 0 0 0-6.05l-3.17 1.82a2 2 0 0 1 0 2.4zm-7.2-4.14a9.27 9.27 0 0 1 4.16 0l3.16-1.83a16.22 16.22 0 0 0-10.48 0zm-3.02 1.74l-3.17-1.82a3.78 3.78 0 0 0 0 6.05l3.16-1.82a2 2 0 0 1 .01-2.41zm15.67 5.56l3 1.76c4.84-3.58 4.84-8.65 0-12.23l-3.05 1.76c3.26 2.6 3.26 6.12.05 8.7zm-3.02 1.75a21.18 21.18 0 0 1-15.1 0l-3.05 1.77a27.87 27.87 0 0 0 21.19 0zm-15.1-12.2a21.21 21.21 0 0 1 15.09 0l3-1.76a27.87 27.87 0 0 0-21.19 0zm-3.02 1.75l-3.05-1.76c-4.84 3.58-4.84 8.65 0 12.23l3.05-1.76c-3.2-2.6-3.22-6.12 0-8.7zm26.47 11.82l3 1.75c7.72-5.3 7.72-13.08 0-18.38l-3 1.75c6.07 4.3 6.07 10.53 0 14.88zm-3.02 1.72c-7.5 3.5-18.3 3.5-25.77 0l-3 1.75c9.17 4.45 22.66 4.45 31.83 0zm-25.75-18.37c7.5-3.5 18.3-3.5 25.77 0l3-1.75c-9.17-4.46-22.66-4.45-31.83 0zm-3 1.75l-3-1.75c-7.72 5.3-7.72 13.08 0 18.37l3-1.75c-6.1-4.32-6.1-10.55 0-14.87z" fill="#2b303f"/><use xlink:href="#D" fill="#f6416c"/><use xlink:href="#E" fill="#00b8a9"/><use xlink:href="#D" y="92" fill="#f6416c"/><g fill="#555753"><use xlink:href="#E" y="92"/><use xlink:href="#E" x="-3.556" y="71.053"/></g><path d="M2199.262 2665.73v4.106l-3.555 2.053v-4.106z" fill="#00b8a9"/><use xlink:href="#D" y="46" fill="#f6416c"/><use xlink:href="#E" y="46" fill="#555753"/><use xlink:href="#E" x="-3.556" y="25.053" fill="#f6416c"/><path d="M2199.262 2619.73v4.106l-3.555 2.053v-4.106z" fill="#555753"/><g fill="none" stroke="#8c8c8c"><use xlink:href="#F" stroke-opacity=".275"/><use xlink:href="#F" y="70" stroke-opacity=".275"/><use xlink:href="#F" y="46.665" stroke-opacity=".275"/><use xlink:href="#F" y="23.333" stroke-opacity=".275"/></g></g><defs ><path id="B" d="M2201.13 2627.05l-10.98 6.34v-12.68l10.98-6.34z"/><path id="C" d="M2235.93 2606.958l-31.45 18.16v-12.68l31.45-18.16z"/><path id="D" d="M2192.15 2604.94v-4.106l3.555-2.053v4.106z"/><path id="E" d="M2195.706 2598.782l3.555-2.053v4.106l-3.555 2.053z"/><path id="F" d="M2242.922 2584.645l-63.102 36.432-63.944-36.918"/></defs></svg>