<svg xmlns="http://www.w3.org/2000/svg" xmlns:xlink="http://www.w3.org/1999/xlink" width="88.539" height="43.045" viewBox="0 0 23.426 11.389" xmlns:v="https://vecta.io/nano"><defs><linearGradient xlink:href="#B" id="A" x1="32.2" y1="36.73" x2="85.433" y2="5.996"/><linearGradient gradientUnits="userSpaceOnUse" id="B"><stop stop-color="#787c80" offset="0"/><stop stop-color="#dbe2e9" offset="1"/></linearGradient><linearGradient id="C" x1="0" y1="27.21" x2="88.34" y2="27.21" gradientUnits="userSpaceOnUse"><stop offset="0" stop-color="#787c80"/><stop offset="1" stop-color="#aaafb5"/></linearGradient><linearGradient xlink:href="#B" id="D" x1="10" y1="21.26" x2="69.5" y2="21.26"/><linearGradient id="E" x1="7.5" y1="12.37" x2="40.66" y2="9.27" gradientUnits="userSpaceOnUse"><stop offset="0" stop-color="#6d7074"/><stop offset="1" stop-color="#dbe2e9"/></linearGradient><path id="F" d="M560.957 285.502a.11.11 0 0 0-.08 0h.07z"/></defs><g transform="matrix(.186569 0 0 .186569 -84.77866 -45.253338)"><g transform="translate(483.63 250.651)"><path d="M52 2l44.34 25.58H8zm0 9L34.53 21.2h35.22L52.08 11" fill="url(#A)"/><path d="M44.07 12.27L44.08 9l17.67 10.2H56.1z" fill="#787c80"/><path d="M32.13 19.2h-5.6L44.08 9l-.01 3.26z" fill="#47494c"/><path d="M44 0l44.34 25.58H0zm0 9L26.53 19.2h35.22L44.08 9" fill="#fff"/><path d="M0 28.84l.01-3.26h88.33l-.01 3.26z" fill="url(#C)"/><path d="M79.84 22.3l-1.42-.8-2.1 1.22 1.42.82 2.1-1.23m-8.06-4.66l-1.42-.82-2.1 1.23 1.42.82 2.1-1.23M63.72 13l-1.42-.82-2.1 1.23 1.4.8 2.12-1.2m-8.07-4.66l-1.4-.82-2.12 1.23 1.42.82 2.1-1.23M47.6 3.7l-1.42-.82-2.1 1.22 1.42.82 2.1-1.22" fill="#dbe2e9"/></g><path d="M19.82 37.13h0M66.6 4.26l-3-.47A1.74 1.74 0 0 0 62.4 4L13.76 32.38 10 38.76l9.8-1.62L68.6 8.67a1.72 1.72 0 0 0 .61-.59h0a1.8 1.8 0 0 0-.4-2.38l-1.37-1.08a1.71 1.71 0 0 0-.84-.36z" fill="url(#D)" transform="translate(454.41 242.571)"/><path d="M514.04 243.44c-2.52-2-4.76-.1-6.13.72h0-.06.1c2.65.36 5.42 4 5.42 7.33a4.36 4.36 0 0 1-.16 1.2 1.27 1.27 0 0 1-.28.24c1.92-1.12 2.5-1.35 3-2 1.6-2.03.56-5.58-1.88-7.5z" fill="#05c3dd"/><path d="M513.33 251.5c0-3.53-3.08-7.36-5.85-7.36-1.8 0-2.8 1.47-2.8 3.34 0 3.23 2.92 7.3 5.87 7.3 1.4 0 2.78-1.02 2.78-3.3zm-46.23 24.06a5.92 5.92 0 0 0-2.21-1.65l-.27-.14a9.31 9.31 0 0 0-1.29-1.57 5.54 5.54 0 0 0-2.41-.56l-6.5 9.68 10.2-.16a10.86 10.86 0 0 0 1.58-1.44 1.93 1.93 0 0 0 .28-1.16s.17-.35.34-.82a3.48 3.48 0 0 0 .3-2.18z" fill="#fff"/><g fill="#f6416c"><path d="M466.46 278.57l45.87-26.67-1.86 2.6-45.87 26.66a11 11 0 0 0 1.6-1.45 1.93 1.93 0 0 0 .26-1.15z"/><path d="M464.62 273.8l45.87-26.65 1.84 4.75-45.87 26.67s1-2.16.64-3-2.48-1.77-2.48-1.77z"/></g><path d="M460.92 271.67l45.87-26.65 3.7 2.13-45.87 26.65a10 10 0 0 0-1.28-1.58 5.7 5.7 0 0 0-2.42-.55z" fill="#f87091"/><path d="M458.8 281.26h0a1 1 0 0 0 .42-.95 3.14 3.14 0 0 0-1.45-2.46 1 1 0 0 0-.94-.11l-2.43 3.6z" fill="#47494c"/><path d="M37.17 8.62l-17 9.88a7 7 0 0 1-7 0l-6.9-4 20.5-11.9z" fill="url(#E)" transform="translate(531.217 280.952)"/><path d="M561.217 285.952c0 1-1.27 3.22-2.4 5.78-.58 1.32-1 1.35-5.75 4.08v-6l7.82-4.35c.2.07.32.24.32.5z" fill="#05c3dd"/><path d="M560.957 285.502h-.08c-.45 0-7.55 4.2-7.82 4.35l-7.75-4.5 7.38-4.3a.65.65 0 0 1 .33-.1c.2 0 7.82 4.47 7.94 4.55z" fill="#0bddf9"/><path d="M553.047 289.822v6l-13.28 7.67a.78.78 0 0 1-.34.11c-.27 0-.42-.23-.42-.55a1.29 1.29 0 0 1 .13-.55l2.27-5.2c.6-1.36.32-.95 11.64-7.5z" fill="#f6416c"/><use xlink:href="#F" fill="#fff"/><path d="M545.297 285.322l7.75 4.5c-11.32 6.54-11 6.13-11.64 7.5l-2.27 5.2a1.49 1.49 0 0 0-.13.57.51.51 0 0 0 .21.46c-6.7-3.9-8-4.4-8-5a1.48 1.48 0 0 1 .17-.58c3.4-7.76.73-5 13.9-12.63z" fill="#f87091"/><use xlink:href="#F" fill="#fff"/></g></svg>