<svg width="500" height="748" viewBox="0 0 500 748" fill="none" xmlns="http://www.w3.org/2000/svg">
<g clip-path="url(#clip0_3_42)">
<path d="M153.485 0C143.064 0.000170505 133.069 4.14026 125.7 11.5095C118.33 18.8788 114.19 28.8736 114.19 39.2953V205.758L227.617 205.75C241.127 205.751 254.505 203.091 266.987 197.922C279.468 192.752 290.81 185.175 300.363 175.623C309.916 166.07 317.494 154.729 322.665 142.248C327.835 129.767 330.496 116.389 330.496 102.879C330.496 89.3692 327.835 75.9917 322.665 63.5103C317.494 51.0289 309.916 39.6881 300.363 30.1356C290.81 20.583 279.468 13.0058 266.987 7.83649C254.505 2.66718 241.127 0.00707913 227.617 0.00806588L153.485 0Z" fill="url(#paint0_linear_3_42)"/>
<path d="M114.199 64.2143V292.997H128.626V321.257H114.199V338.57H120.634V374.776H114.199V397.128C114.199 453.942 160.256 499.999 217.071 500H297.476C389.402 499.999 463.921 425.48 463.922 333.554C463.921 241.629 389.402 167.109 297.476 167.109L217.071 167.086C203.561 167.086 190.184 164.425 177.703 159.255C165.222 154.085 153.882 146.508 144.329 136.955C134.777 127.403 127.199 116.062 122.029 103.581C116.86 91.1001 114.199 77.7231 114.199 64.2138V64.2143ZM240.888 276.966H354.042V390.12H240.888V276.966ZM155.26 288.783H211.849V345.348H155.26V288.783ZM138.085 361.769H183.337V407.021H138.085V361.769Z" fill="url(#paint1_linear_3_42)"/>
<path d="M114.191 374.768V338.561H84.4189V374.768H114.191Z" fill="url(#paint2_linear_3_42)"/>
<path d="M114.191 321.271V292.988H100.336V321.271H114.191Z" fill="url(#paint3_linear_3_42)"/>
<path d="M82.1086 225.771V235.046H91.3838V225.771H82.1086Z" fill="#5C75FF"/>
<path d="M62.9639 241.276V252.864H74.552V241.276H62.9639Z" fill="#6F67FF"/>
<path d="M46.2913 263.376V277.849H60.7878V263.376H46.2913Z" fill="url(#paint4_linear_3_42)"/>
<path d="M66.6287 284.743V302.858H84.7208V284.743H66.6287Z" fill="url(#paint5_linear_3_42)"/>
<path d="M36.0774 294.247V303.522H45.3295V294.247H36.0774Z" fill="url(#paint6_linear_3_42)"/>
<path d="M42.5361 315.453V338.08H65.1628V315.453H42.5361Z" fill="url(#paint7_linear_3_42)"/>
<path d="M66.3064 351.638V359.058H73.7264V351.638H66.3064Z" fill="url(#paint8_linear_3_42)"/>
<path d="M69.3896 265.768V271.916H75.5368V265.768H69.3896Z" fill="#7563FF"/>
</g>
<path d="M436.945 530L500 656.734H477.406L466.374 632.693H407.247L396.216 656.734H374.43L436.945 530ZM458.666 615.824L437.12 568.904L415.225 615.824H458.666Z" fill="#00B6FF"/>
<path d="M0.0051142 530.01H33.8698C52.921 530.01 65.5989 533.057 71.9029 539.15C78.1719 545.243 81.3071 552.6 81.3071 561.22C81.3071 566.968 79.9803 572.429 77.3267 577.602C74.6731 582.658 70.4529 586.467 64.6663 589.026C73.1066 590.291 79.3581 593.682 83.4223 599.199C87.5208 604.604 89.5697 610.926 89.5697 618.164C89.5697 625.522 88.3645 631.96 85.9543 637.477C83.544 642.994 78.542 647.592 70.9491 651.271C63.3533 654.913 52.381 656.735 38.0331 656.735H0L0.0051142 530.01ZM37.0793 583.806C45.6413 583.806 51.7296 581.852 55.3458 577.944C58.9575 573.921 60.7638 568.863 60.7638 562.769C60.7638 551.848 52.5668 546.387 36.1729 546.387H19.8971V583.806H37.0793ZM40.6947 640.531C51.6706 640.531 59.0253 638.462 62.7595 634.323C66.5803 630.071 68.49 624.726 68.49 618.288C68.49 612.195 66.3195 607.483 61.9777 604.152C57.6366 600.817 51.0644 599.149 42.2635 599.149H19.8395V640.527L40.6947 640.531Z" fill="#00B6FF"/>
<path d="M163.238 530L226.289 656.734H203.699L192.664 632.693H133.645L122.611 656.734H100.719L163.238 530ZM184.953 615.824L163.41 568.904L141.517 615.824H184.953Z" fill="#00B6FF"/>
<path d="M247.734 530H267.349V656.734H247.734V530Z" fill="#00B6FF"/>
<path d="M321.715 546.312H288.788V530H374.43V546.312H341.154V656.685H321.72L321.715 546.312Z" fill="#00B6FF"/>
<path d="M12.8747 732.23C10.3508 732.23 7.84704 731.809 5.36569 730.967C2.88363 730.125 1.09547 729.18 0.000488281 728.133L3.34555 722.418C4.2295 723.183 5.597 723.987 7.44945 724.83C9.34244 725.631 11.1523 726.032 12.8789 726.032C15.1094 726.032 16.9185 725.53 18.3084 724.527C19.7381 723.524 20.453 722.14 20.453 720.377C20.453 719.014 20.0742 717.831 19.3161 716.827C18.5586 715.825 17.632 715.003 16.537 714.362C15.4665 713.681 13.9096 712.859 11.8671 711.896C9.46821 710.774 7.82747 709.931 6.94352 709.369C2.86127 706.761 0.819447 703.149 0.819447 698.535C0.819447 694.723 2.15832 691.814 4.83534 689.806C7.51235 687.758 10.8588 686.734 14.8746 686.734C19.2119 686.734 22.8931 687.918 25.9181 690.284L22.5731 695.759C21.7702 694.957 20.6319 694.276 19.1595 693.714C17.7299 693.112 16.1946 692.811 14.5539 692.811C12.4492 692.811 10.7868 693.27 9.56604 694.189C8.3879 695.072 7.79884 696.396 7.79884 698.159C7.79884 699.403 8.17828 700.525 8.93575 701.529C9.69322 702.491 10.6394 703.333 11.7749 704.056C12.953 704.778 14.5322 705.661 16.5133 706.705C18.4063 707.708 19.8569 708.512 20.8666 709.117C21.8757 709.678 22.8218 710.36 23.7051 711.162C24.9265 712.182 25.9167 713.425 26.677 714.89C27.4344 716.335 27.8139 717.92 27.8139 719.646C27.8139 722.333 27.1619 724.62 25.858 726.506C24.5995 728.395 22.833 729.82 20.5571 730.779C18.3273 731.742 15.781 732.223 12.9195 732.223L12.8747 732.23Z" fill="#A1A1A1"/>
<path d="M51.422 703.296C48.3914 703.296 45.7236 703.927 43.4106 705.211C41.0977 706.495 39.3111 708.244 38.047 710.45C36.8262 712.657 36.2181 715.08 36.2181 717.727C36.2181 720.414 36.8519 722.867 38.1152 725.073C39.3793 727.278 41.1659 729.014 43.4789 730.298C45.7918 731.582 48.434 732.227 51.422 732.227C54.4072 732.227 57.0353 731.582 59.3105 730.298C61.629 729.014 63.4157 727.278 64.6742 725.073C65.9375 722.867 66.5712 720.414 66.5712 717.727C66.5712 715.077 65.9376 712.655 64.6742 710.45C63.4534 708.244 61.6917 706.495 59.3787 705.211C57.1084 703.927 54.4526 703.296 51.422 703.296ZM51.2309 708.589C53.7123 708.589 55.7067 709.493 57.2224 711.298C58.7373 713.061 59.5016 715.241 59.5016 717.85C59.5016 720.456 58.7886 722.622 57.3589 724.348C55.9718 726.073 54.0546 726.933 51.6131 726.933V726.947C49.1743 726.947 47.1799 726.087 45.6216 724.362C44.0634 722.598 43.2878 720.432 43.2878 717.864C43.2878 715.215 44.0009 712.996 45.4305 711.23C46.9029 709.463 48.832 708.59 51.2309 708.59V708.589Z" fill="#A1A1A1"/>
<path d="M74.9785 687.125H81.7329V732.226H74.9785V687.125Z" fill="#A1A1A1"/>
<path d="M100.618 732.226C96.6223 732.226 93.8635 731.105 92.3458 728.858C90.8714 726.61 90.137 723.482 90.137 719.469V704.002H96.9514V717.842C96.9514 720.128 97.0723 721.916 97.3288 723.202C97.6223 724.447 98.1323 725.37 98.9352 725.971C99.7381 726.572 101.023 726.874 102.658 726.874C103.867 726.864 105.049 726.532 106.071 725.917C107.172 725.281 108.047 724.412 108.722 723.329C109.436 722.207 109.794 720.982 109.794 719.653V704.009H116.548V732.226H110.995L110.191 727.632C109.139 729.164 107.814 730.358 106.175 731.124C104.618 731.889 102.722 732.272 100.494 732.272L100.618 732.226Z" fill="#A1A1A1"/>
<path d="M149.589 729.577C148.785 730.139 147.712 730.68 146.368 731.2C145.064 731.711 143.592 732.03 141.951 732.158C142.12 732.678 142.521 733.32 143.155 734.084C143.87 735.003 144.396 735.844 144.734 736.611C145.108 737.376 145.296 738.32 145.296 739.443C145.296 742.211 144.434 744.235 142.709 745.52C141.023 746.847 138.708 747.51 135.762 747.51C134.753 747.51 133.616 747.408 132.349 747.204L132.911 741.607C133.5 741.683 134.089 741.722 134.678 741.722C137.666 741.722 139.16 740.819 139.16 739.015C139.16 738.657 139.075 738.275 138.907 737.866C138.738 737.508 138.569 737.207 138.401 736.963C138.275 736.758 138.19 736.631 138.148 736.58C137.773 736.059 137.457 735.557 137.2 735.075C136.986 734.565 136.879 734.023 136.879 733.452C136.879 732.814 136.963 732.333 137.132 732.008C133.512 731.406 130.568 729.842 128.297 727.315C126.067 724.746 124.952 721.477 124.952 717.505C124.952 714.657 125.562 712.168 126.783 710.04C128.041 707.87 129.787 706.206 132.02 705.047C134.295 703.883 136.905 703.301 139.851 703.301C142.081 703.301 143.994 703.582 145.593 704.143C147.234 704.664 148.519 705.328 149.448 706.134L146.42 711.368C144.653 709.684 142.655 708.841 140.424 708.841C137.731 708.841 135.67 709.624 134.24 711.188C132.848 712.753 132.152 714.839 132.152 717.448C132.152 720.416 132.867 722.722 134.297 724.366C135.769 726.01 137.81 726.832 140.421 726.832C141.724 726.832 142.987 726.654 144.208 726.296C145.471 725.938 146.439 725.518 147.111 725.032L149.589 729.577Z" fill="#A1A1A1"/>
<path d="M173.217 703.282C170.186 703.282 167.504 703.926 165.192 705.211C162.879 706.495 161.092 708.245 159.828 710.45C158.607 712.658 157.999 715.08 157.999 717.727C157.999 720.415 158.633 722.867 159.896 725.073C161.16 727.277 162.947 729.013 165.26 730.298C167.569 731.58 170.234 732.225 173.217 732.227C176.196 732.225 178.82 731.58 181.091 730.298C183.405 729.013 185.205 727.277 186.469 725.073C187.727 722.867 188.352 720.415 188.352 717.727C188.352 715.078 187.727 712.655 186.469 710.45C185.248 708.245 183.473 706.495 181.16 705.211C178.889 703.926 176.247 703.282 173.217 703.282ZM173.012 708.576C175.493 708.576 177.501 709.479 179.017 711.284C180.532 713.048 181.282 715.241 181.282 717.85C181.282 720.455 180.569 722.623 179.14 724.348C177.753 726.073 175.835 726.933 173.394 726.933C170.955 726.933 168.961 726.073 167.402 724.348C165.844 722.584 165.069 720.418 165.069 717.85C165.069 715.201 165.782 712.996 167.211 711.229C168.684 709.463 170.613 708.576 173.012 708.576Z" fill="#A1A1A1"/>
<path d="M177.255 698.293C175.991 698.293 175 698.115 174.283 697.757C173.613 697.4 172.94 696.89 172.263 696.226C171.727 695.664 171.223 695.243 170.749 694.962C170.214 694.707 169.584 694.58 168.862 694.58C168.147 694.58 167.41 694.86 166.653 695.422C165.938 695.983 165.309 696.846 164.765 698.01L161.862 693.798C162.237 692.556 163.016 691.432 164.199 690.43C165.42 689.426 166.935 688.924 168.745 688.924C169.966 688.924 170.957 689.125 171.717 689.526C172.52 689.883 173.216 690.385 173.805 691.03C174.394 691.633 174.929 692.075 175.411 692.355C175.958 692.61 176.609 692.738 177.367 692.738C178.125 692.738 178.882 692.457 179.64 691.895C180.443 691.293 181.116 690.391 181.66 689.189L184.563 693.461C184.394 694.099 183.952 694.802 183.238 695.567C182.569 696.333 181.685 696.997 180.588 697.558C179.536 698.079 178.42 698.339 177.242 698.339L177.255 698.293Z" fill="#A1A1A1"/>
<path d="M211.758 703.282C208.902 703.282 206.336 703.882 204.061 705.088C201.788 706.251 200.001 707.943 198.697 710.149C197.434 712.356 196.8 714.922 196.8 717.85C196.8 720.458 197.326 722.867 198.397 725.073C199.492 727.234 201.202 728.97 203.515 730.298C205.798 731.582 208.673 732.227 212.154 732.227H212.195C214.763 732.227 216.95 731.971 218.76 731.461C220.572 730.976 222.007 730.416 223.059 729.778L220.971 725.182C219.876 725.743 218.672 726.187 217.368 726.509C216.062 726.83 214.404 726.988 212.386 726.988C209.95 726.988 208.032 726.442 206.641 725.36C205.294 724.28 204.388 722.516 203.925 720.066H224.751C224.877 718.902 224.942 717.783 224.942 716.701C224.942 712.448 223.855 709.153 221.667 706.825C219.52 704.459 216.219 703.282 211.758 703.282H211.758ZM211.526 708.795C213.713 708.795 215.398 709.306 216.576 710.327C217.754 711.33 218.325 713.066 218.282 715.552L203.897 715.593C204.571 711.06 207.109 708.795 211.526 708.795V708.795Z" fill="#A1A1A1"/>
<path d="M244.232 732.226C242.214 732.226 240.11 731.971 237.92 731.461C235.773 730.94 234.238 730.337 233.314 729.654L235.587 724.538C238.111 726.224 240.994 727.065 244.232 727.065C247.445 727.065 249.052 726.163 249.052 724.358C249.052 723.557 248.717 722.936 248.048 722.494C247.378 722.053 246.179 721.542 244.45 720.962L242.052 720.121C239.528 719.158 237.529 718.015 236.057 716.69C234.584 715.327 233.848 713.54 233.848 711.33C233.848 708.778 234.879 706.812 236.94 705.434C239.045 703.989 241.855 703.266 245.373 703.266C247.097 703.266 248.78 703.446 250.421 703.803C252.108 704.16 253.393 704.62 254.276 705.181L251.806 710.388C251.26 709.867 250.377 709.425 249.156 709.063C247.978 708.663 246.64 708.462 245.14 708.462C242.153 708.462 240.659 709.325 240.659 711.05C240.659 712.013 241.06 712.756 241.864 713.279C242.666 713.789 243.97 714.33 245.775 714.902C245.944 714.943 246.595 715.163 247.73 715.564C250.424 716.568 252.422 717.711 253.726 718.995C255.03 720.279 255.682 721.938 255.682 723.972C255.682 726.703 254.588 728.771 252.4 730.174C250.254 731.578 247.519 732.28 244.197 732.28L244.232 732.226Z" fill="#A1A1A1"/>
<path d="M284.065 687.127L284.079 732.227H295.625C301.603 732.227 306.418 731.127 310.079 728.916C313.781 726.706 316.437 723.857 318.035 720.381C319.634 716.866 320.424 713.039 320.424 708.904C320.424 702.973 318.548 697.866 314.801 693.57C311.127 689.275 304.613 687.127 295.243 687.127H284.065ZM291.135 693.132H296.376C302.113 693.132 306.323 694.633 309 697.619C311.677 700.605 313.013 704.471 313.013 709.219C313.013 714.088 311.677 718.134 309 721.366C306.395 724.556 302.185 726.153 296.376 726.153H291.135V693.132Z" fill="#A1A1A1"/>
<path d="M328.828 703.286H335.895V732.231H328.828V703.286ZM332.297 698.833C331.687 698.853 331.078 698.753 330.51 698.539C329.942 698.325 329.426 698.003 328.995 697.591C328.562 697.179 328.224 696.687 327.999 696.145C327.776 695.604 327.67 695.024 327.691 694.442C327.691 693.32 328.093 692.355 329.016 691.555C329.94 690.755 330.992 690.353 332.297 690.353C332.891 690.341 333.481 690.441 334.033 690.647C334.586 690.853 335.091 691.161 335.518 691.555C336.401 692.321 336.843 693.316 336.843 694.442C336.858 695.022 336.747 695.598 336.52 696.136C336.292 696.675 335.951 697.162 335.518 697.57C334.715 698.412 333.602 698.833 332.297 698.833Z" fill="#A1A1A1"/>
<path d="M360.093 746.074C357.938 746.073 355.793 745.79 353.72 745.232C351.66 744.67 350.186 744.148 349.303 743.662L350.817 737.644C353.595 739.366 356.623 740.232 359.904 740.232C362.434 740.232 364.554 739.65 366.277 738.486C368 737.322 368.887 735.056 368.928 731.686V726.747C368.044 728.318 366.615 729.619 364.631 730.66C362.62 731.712 360.359 732.251 358.065 732.226C355.535 732.226 353.226 731.644 351.118 730.48C349.013 729.278 347.351 727.571 346.13 725.366C344.909 723.16 344.299 720.591 344.299 717.662C344.299 714.856 344.861 712.368 346.002 710.196C347.106 708.065 348.84 706.287 350.989 705.082C353.133 703.879 355.64 703.274 358.498 703.274C360.185 703.274 361.76 703.554 363.237 704.117C364.715 704.68 365.952 705.38 366.96 706.223C368.012 706.988 368.707 707.831 369.048 708.635L369.169 703.274H375.606V731.434C375.606 736.128 374.345 739.742 371.818 742.269C369.293 744.796 365.381 746.098 360.08 746.098L360.093 746.074ZM359.972 726.759C361.097 726.783 362.215 726.588 363.257 726.184C364.3 725.78 365.244 725.177 366.032 724.412C367.678 722.804 368.494 720.721 368.494 718.153V717.769C368.494 716.047 368.116 714.5 367.358 713.175C366.599 711.851 365.57 710.748 364.265 709.986C362.96 709.224 361.535 708.837 359.969 708.837C357.278 708.837 355.19 709.68 353.72 711.364C352.246 713.011 351.511 715.193 351.511 717.804C351.511 720.492 352.226 722.678 353.656 724.363C355.13 726.008 357.229 726.828 359.969 726.828L359.972 726.759Z" fill="#A1A1A1"/>
<path d="M384.01 703.286H391.082V732.231H384.01V703.286ZM387.483 698.833C386.875 698.853 386.267 698.753 385.694 698.539C385.128 698.325 384.611 698.003 384.178 697.591C383.752 697.179 383.409 696.687 383.186 696.145C382.962 695.604 382.857 695.024 382.878 694.442C382.878 693.32 383.276 692.355 384.199 691.555C385.128 690.755 386.176 690.353 387.483 690.353C388.077 690.341 388.664 690.441 389.216 690.647C389.775 690.853 390.278 691.161 390.704 691.555C391.585 692.321 392.032 693.316 392.032 694.442C392.046 695.022 391.934 695.598 391.704 696.136C391.48 696.675 391.138 697.162 390.704 697.57C389.901 698.412 388.79 698.833 387.483 698.833Z" fill="#A1A1A1"/>
<path d="M404.601 708.581H399.486V703.286H404.601V692.757L411.477 691.314V703.29H418.171V708.585H411.477V732.234H404.601V708.581Z" fill="#A1A1A1"/>
<path d="M436.637 703.282C433.737 703.282 431.207 703.886 429.062 705.088C426.91 706.29 425.254 707.982 424.081 710.149C422.942 712.312 422.375 714.84 422.375 717.727C422.375 720.656 423.019 723.223 424.326 725.428C425.675 727.595 427.441 729.288 429.635 730.489C431.857 731.652 434.346 732.244 436.882 732.227H436.896C439.258 732.227 441.383 731.696 443.27 730.612C445.164 729.487 446.474 728.198 447.187 726.755L447.31 732.227H453.752V703.282H447.242L447.119 708.644C446.79 707.84 446.105 707.002 445.099 706.237C444.093 705.394 442.861 704.693 441.387 704.13C439.905 703.568 438.328 703.282 436.637 703.282H436.637ZM438.015 708.89C439.58 708.89 441.007 709.277 442.314 710.039C443.621 710.801 444.651 711.902 445.412 713.227C446.167 714.551 446.545 716.1 446.545 717.823V718.206C446.545 720.775 445.696 722.863 444.088 724.471C443.299 725.236 442.345 725.832 441.304 726.235C440.263 726.639 439.154 726.834 438.029 726.81L438.015 726.878C435.317 726.878 433.184 726.063 431.709 724.416C430.277 722.732 429.567 720.552 429.567 717.864C429.567 715.253 430.303 713.068 431.778 711.421C433.203 709.737 435.324 708.891 438.015 708.891L438.015 708.89Z" fill="#A1A1A1"/>
<path d="M462.156 703.286H469.22V732.231H462.156V703.286ZM465.622 698.833C465.014 698.853 464.406 698.753 463.833 698.539C463.267 698.325 462.75 698.003 462.316 697.591C461.89 697.179 461.548 696.687 461.324 696.145C461.101 695.604 460.996 695.024 461.017 694.442C461.017 693.32 461.415 692.355 462.344 691.555C463.267 690.755 464.315 690.353 465.622 690.353C466.216 690.341 466.803 690.441 467.355 690.647C467.914 690.853 468.417 691.161 468.843 691.555C469.724 692.321 470.171 693.316 470.171 694.442C470.185 695.022 470.073 695.598 469.842 696.136C469.619 696.675 469.276 697.162 468.843 697.57C468.039 698.412 466.928 698.833 465.622 698.833Z" fill="#A1A1A1"/>
<path d="M488.547 732.23C486.527 732.23 484.424 731.987 482.23 731.503C480.084 730.982 478.547 730.379 477.625 729.696L479.896 724.58C482.425 726.266 485.304 727.107 488.547 727.107C491.754 727.107 493.361 726.205 493.361 724.4C493.361 723.599 493.026 722.977 492.355 722.536C491.691 722.095 490.489 721.571 488.763 720.967L486.359 720.124C483.837 719.162 481.838 718.018 480.371 716.694C478.897 715.331 478.156 713.544 478.156 711.334C478.156 708.781 479.19 706.816 481.251 705.438C483.355 703.993 486.164 703.271 489.686 703.271C491.405 703.271 493.089 703.449 494.731 703.806C496.415 704.164 497.701 704.623 498.588 705.185L496.128 710.361C495.576 709.841 494.696 709.399 493.473 709.037C492.299 708.635 490.957 708.435 489.462 708.435C486.471 708.435 484.976 709.298 484.976 711.024C484.976 711.986 485.381 712.728 486.185 713.251C486.988 713.737 488.288 714.277 490.091 714.875C490.266 714.916 490.915 715.137 492.048 715.537C494.745 716.54 496.743 717.684 498.043 718.968C499.35 720.252 500 721.898 500 723.907C500 726.638 498.909 728.706 496.722 730.109C494.57 731.513 491.838 732.215 488.519 732.215L488.547 732.23Z" fill="#A1A1A1"/>
<defs>
<linearGradient id="paint0_linear_3_42" x1="170.024" y1="141.337" x2="289.18" y2="39.7117" gradientUnits="userSpaceOnUse">
<stop stop-color="#4036C1"/>
<stop offset="0.98" stop-color="#539EFF"/>
</linearGradient>
<linearGradient id="paint1_linear_3_42" x1="152.212" y1="447.061" x2="377.69" y2="241.109" gradientUnits="userSpaceOnUse">
<stop stop-color="#8855FF"/>
<stop offset="1" stop-color="#00B6FF"/>
</linearGradient>
<linearGradient id="paint2_linear_3_42" x1="152.462" y1="455.926" x2="377.94" y2="249.974" gradientUnits="userSpaceOnUse">
<stop stop-color="#8855FF"/>
<stop offset="1" stop-color="#00B6FF"/>
</linearGradient>
<linearGradient id="paint3_linear_3_42" x1="152.462" y1="455.926" x2="377.94" y2="249.974" gradientUnits="userSpaceOnUse">
<stop stop-color="#8855FF"/>
<stop offset="1" stop-color="#00B6FF"/>
</linearGradient>
<linearGradient id="paint4_linear_3_42" x1="152.213" y1="455.926" x2="377.691" y2="249.974" gradientUnits="userSpaceOnUse">
<stop stop-color="#8855FF"/>
<stop offset="1" stop-color="#00B6FF"/>
</linearGradient>
<linearGradient id="paint5_linear_3_42" x1="152.214" y1="455.926" x2="377.692" y2="249.974" gradientUnits="userSpaceOnUse">
<stop stop-color="#8855FF"/>
<stop offset="1" stop-color="#00B6FF"/>
</linearGradient>
<linearGradient id="paint6_linear_3_42" x1="152.213" y1="455.926" x2="377.691" y2="249.974" gradientUnits="userSpaceOnUse">
<stop stop-color="#8855FF"/>
<stop offset="1" stop-color="#00B6FF"/>
</linearGradient>
<linearGradient id="paint7_linear_3_42" x1="152.214" y1="455.926" x2="377.692" y2="249.973" gradientUnits="userSpaceOnUse">
<stop stop-color="#8855FF"/>
<stop offset="1" stop-color="#00B6FF"/>
</linearGradient>
<linearGradient id="paint8_linear_3_42" x1="152.212" y1="455.926" x2="377.69" y2="249.974" gradientUnits="userSpaceOnUse">
<stop stop-color="#8855FF"/>
<stop offset="1" stop-color="#00B6FF"/>
</linearGradient>
<clipPath id="clip0_3_42">
<rect width="427.845" height="500" fill="white" transform="translate(36.0774)"/>
</clipPath>
</defs>
</svg>
