<svg xmlns="http://www.w3.org/2000/svg" xmlns:xlink="http://www.w3.org/1999/xlink" width="113.087" height="164.651" viewBox="0 0 29.921 43.564" xmlns:v="https://vecta.io/nano"><g transform="matrix(.170673 0 0 .170673 -242.527576 -353.122866)"><path d="M1437.348 2323.155l76.053-43.796a2.809 2.809 0 0 0-.117-4.925l-9.568-4.932a2.823 2.823 0 0 0-2.686.062l-78.615 45.266a2.803 2.803 0 0 0 .117 4.925l6.945 3.58a8.202 8.202 0 0 0 7.872-.179z" opacity=".4" fill="#d6d8e5"/><g fill="#b1b4c4"><path d="M1436.812 2316.973l60.68-39.483c5.495-3.167 9.94-11.677 9.94-18.993v-180.784c-.02-7.336-4.45-10.688-9.94-7.515l-64.815 37.415c-5.495 3.173-9.94 11.677-9.94 18.993v180.79c0 7.322 8.586 12.742 14.074 9.575z"/><path d="M1503.71 2069.52l.955 6.972 3.77-4.492z"/></g><path d="M1436.812 2316.973l64.808-37.422c5.495-3.166 9.94-11.677 9.94-18.993v-180.777c-.027-7.343-4.45-10.688-9.94-7.52l-64.808 37.422c-5.495 3.173-9.946 11.677-9.946 18.993v180.79c0 7.315 4.45 10.68 9.946 7.508z" fill="#616e84"/><path d="M1427.56 2129.135v180.784c0 7.33 4.444 10.688 9.94 7.52l64.815-37.422c5.495-3.173 9.932-11.677 9.932-18.993v-180.784c-.028-7.33-4.444-10.688-9.932-7.52l-64.815 37.422c-5.495 3.173-9.94 11.67-9.94 18.993z" fill="#20232d"/><path d="M1432.238 2127.3v176.08c0 4.437 3.112 6.237 6.945 4.012l3.434-1.992 11.773-6.793 5.062-2.926 1.786-1.037.598-.35 4.362-2.507 34.372-19.838c3.847-2.22 6.95-7.61 6.95-12.055V2083.8c0-4.437-3.105-6.237-6.95-4.018l-25.25 14.638v.07a11.973 11.973 0 0 1-5.413 9.383c-2.995 1.717-5.42.323-5.42-3.125v-.076l-25.312 14.6c-3.826 2.19-6.938 7.583-6.938 12.02z" fill="#fff"/><path d="M1424.93 2152.922h0c.53.3.955 0 .955-.687v-7.74a2.28 2.28 0 0 0-.955-1.827h0c-.53-.3-.955 0-.955.72v7.707a2.28 2.28 0 0 0 .955 1.827zm0 12.632h0c.53.302.955 0 .955-.72v-7.714a2.301 2.301 0 0 0-.955-1.827h0c-.53-.302-.955 0-.955.728v7.707a2.287 2.287 0 0 0 .955 1.827z" fill="#757b89"/><path d="M1446.388 2187.5l48.77-28.163c2.06-1.195 3.75-4.403 3.75-7.17v-54.952c0-2.747-1.676-4.032-3.75-2.837l-48.77 28.163c-2.06 1.195-3.75 4.403-3.75 7.164v54.952c0 2.768 1.676 4.04 3.75 2.844zm0 73.532l48.77-28.163c2.06-1.195 3.75-4.403 3.75-7.164v-54.952c0-2.748-1.676-4.032-3.75-2.837l-48.77 28.163c-2.06 1.195-3.75 4.403-3.75 7.17v54.952c0 2.754 1.676 4.025 3.75 2.83zm-3.758 15.73v28.637l56.25-32.47v-28.644c0-2.748-1.683-4.025-3.75-2.83l-48.77 28.163c-2.047 1.175-3.73 4.382-3.73 7.144z" fill="#e9eaf2"/><path d="M1456.094 2142.138l6.67-11.56a3.091 3.091 0 0 1 1.065-1.126h0a1.14 1.14 0 0 1 .186-.089 1.511 1.511 0 0 1 .192-.124l1.855-1.072c.508-.295.982-.275 1.257.062.6.687 1.923.625 3.393-.227a8.401 8.401 0 0 0 3.393-3.689 3.187 3.187 0 0 1 1.264-1.518l1.82-1.065a1.195 1.195 0 0 1 .186-.096 1.175 1.175 0 0 1 1.25-.227l6.67 3.853c.6.343.6 1.436 0 2.452l-3.647 6.32a3.112 3.112 0 0 1-1.024 1.126 1.072 1.072 0 0 1-1.065.103l-.838-.488v15.455a3.338 3.338 0 0 1-1.532 2.576l-12.982 7.556c-.83.48-1.497.1-1.497-.865v-15.455l-.845 1.456a3.036 3.036 0 0 1-1.058 1.12h0a1.072 1.072 0 0 1-1.065.103l-3.647-2.1c-.584-.364-.584-1.422 0-2.473zm2.823 70.606l23.595-13.62a22.187 22.187 0 0 1 .982 6.244v14.754l-10.812 6.244-1.97-11.347-1.965 13.62-10.8 6.244v-14.76a34.345 34.345 0 0 1 .962-7.377zm0-4.54l23.595-13.62V2198l-23.595 13.62zm-4.513 90.402l6.836-3.963.598-.35 4.362-2.507 17.894-10.324v-7.254c0-.72-.5-1.017-1.133-.687a2.596 2.596 0 0 0-1.023 1.374l-.213.687a10.207 10.207 0 0 1-4.163 5.454c-2.52 1.456-4.582.268-4.582-2.65v-.88c0-.893-.632-1.27-1.374-.817a2.748 2.748 0 0 0-.9.9l-2.013 3.084 2.267 1.27-1.257 2.157-2.377-1.374-1.03 1.587 2.164 1.25-1.243 2.164-2.287-1.32-1.03 1.587 2.06 1.195-1.243 2.164-2.2-1.264a16.149 16.149 0 0 1-4.87 4.664l-.398.22a7.219 7.219 0 0 0-2.851 3.634z" fill="#00a9e0"/><path d="M1543.693 2256.104l48.3 26.826c1.92 1.112 1.852 3.905-.117 4.925l-9.568 4.932c-.848.434-1.858.41-2.686-.062l-50.86-28.296c-1.93-1.107-1.862-3.91.117-4.925l6.945-3.58a8.2 8.2 0 0 1 7.872.179z" opacity=".4" fill="#d6d8e5"/><g transform="matrix(.298237 .172187 0 .397649 1522.0553 2136.8112)" fill="#eeeeec"><g fill="#d6d8e5"><path d="M24.026 100.362c-9.894 0-29.575 15.934-28.14 25.15L6.26 192.138c1.435 9.215-3.685 27.44 6.2 27.44s29.326-17.546 29.326-27.44V118.13a17.66 17.66 0 0 0-17.767-17.767zm207.223 0c-9.894 0-24.474 15.013-24.474 15.013l6.706 76.763c.83 9.515-2.648 27.88 7.246 27.88s28.3-17.986 28.3-27.88V118.13a17.66 17.66 0 0 0-17.767-17.767zM98.034 184.818a17.66 17.66 0 0 0-17.767 17.767v74.008c0 9.894-1.767 27.6 8.127 27.6s27.407-17.705 27.407-27.6v-74.008a17.66 17.66 0 0 0-17.767-17.767zm59.207 0a17.66 17.66 0 0 0-17.767 17.767v74.008c0 9.894.33 26.378 10.223 26.378s25.312-16.484 25.312-26.378v-74.008a17.66 17.66 0 0 0-17.767-17.767z"/><path d="M78.443 7.117a2.47 2.47 0 0 0-1.197.327C76.18 8.035 64.4 17.126 64.7 18.226c.056.206 2.235 2.332 2.346 2.532l11.416 17.43c-3.046 1.585.478 1.4-2.25 3.4C41.463 67.22 48.433 73.28 48.405 97.15l146.482 10.3 11.983-10.3c-.033-27.328-16.298-51.14-40.378-63.67l12.516-22.61c.704-1.27.287-2.726-.98-3.428-.386-.214-.777-.322-1.197-.327-.9-.01-1.332.416-2.3 1.222L163.06 18.16l-1.138 13.117c-10.372-4.6-22.006-7.183-34.283-7.183s-23.91 2.582-34.283 7.183L80.675 8.423c-.48-.865-1.332-1.315-2.23-1.306zm-30.04 96.293l-11.983 10.3 11.983 104.548c1.155 10.076 9.088 18.274 19.155 19.155l109.782 9.604c10.067.88 29.528-18.147 29.528-28.76V103.41z"/></g><use xlink:href="#B"/></g><g transform="matrix(.298237 .172187 0 .397649 1518.4816 2138.8442)"><g fill="#a4c639"><path d="M24.026 100.362a17.66 17.66 0 0 0-17.767 17.767v74.008a17.66 17.66 0 0 0 17.767 17.767 17.66 17.66 0 0 0 17.767-17.767V118.13a17.66 17.66 0 0 0-17.767-17.767zm207.223 0a17.66 17.66 0 0 0-17.767 17.767v74.008a17.767 17.767 0 1 0 35.535 0V118.13a17.66 17.66 0 0 0-17.767-17.767zM98.034 184.818a17.66 17.66 0 0 0-17.767 17.767v74.008a17.66 17.66 0 0 0 17.767 17.767 17.66 17.66 0 0 0 17.767-17.767v-74.008a17.66 17.66 0 0 0-17.767-17.767zm59.207 0a17.66 17.66 0 0 0-17.767 17.767v74.008a17.66 17.66 0 0 0 17.767 17.767 17.66 17.66 0 0 0 17.767-17.767v-74.008a17.66 17.66 0 0 0-17.767-17.767z"/><path d="M78.443 7.117a2.47 2.47 0 0 0-1.197.327c-1.267.702-1.684 2.158-.98 3.428l12.516 22.61c-24.08 12.53-40.345 36.34-40.378 63.67H206.87c-.033-27.328-16.298-51.14-40.378-63.67l12.516-22.61c.704-1.27.287-2.726-.98-3.428-.386-.214-.777-.322-1.197-.327-.9-.01-1.75.44-2.23 1.306l-12.68 22.856c-10.372-4.6-22.006-7.183-34.283-7.183s-23.91 2.582-34.283 7.183L80.675 8.423c-.48-.865-1.332-1.315-2.23-1.306zm-30.04 96.293v114.85c0 10.612 8.543 19.155 19.155 19.155h120.155c10.612 0 19.155-8.543 19.155-19.155V103.41z"/></g><use xlink:href="#B" fill="#fff"/></g></g><defs ><path id="B" d="M91.068 54.923a6.66 6.66 0 0 0-6.612 6.612 6.66 6.66 0 0 0 6.612 6.612 6.66 6.66 0 0 0 6.612-6.612 6.66 6.66 0 0 0-6.612-6.612zm73.138 0a6.66 6.66 0 0 0-6.612 6.612 6.66 6.66 0 0 0 6.612 6.612 6.66 6.66 0 0 0 6.612-6.612 6.66 6.66 0 0 0-6.612-6.612z"/></defs></svg>