<svg xmlns="http://www.w3.org/2000/svg" xmlns:xlink="http://www.w3.org/1999/xlink" width="99.715" height="89.711" viewBox="0 0 26.383 23.736" xmlns:v="https://vecta.io/nano"><defs><linearGradient id="A" x1="58.08" y1="116.74" x2="197.33" y2="103.99" xlink:href="#T"><stop offset="0" stop-color="#787c80"/><stop offset="1" stop-color="#dbe2e9"/></linearGradient><linearGradient id="B" x1="5.18" y1="51.47" x2="117.85" y2="67.3" xlink:href="#T"><stop offset="0" stop-color="#222831"/><stop offset="1" stop-color="#787c80"/></linearGradient><linearGradient xlink:href="#D" id="C" x1="28.74" y1="110.5" x2="162.38" y2="110.5"/><linearGradient y2="111.14" x2="33.83" y1="101.27" x1="134.21" id="D" xlink:href="#T"><stop stop-color="#dbf9ea" offset="0"/><stop stop-color="#c0dde2" offset="1"/></linearGradient><linearGradient xlink:href="#F" id="E" x1="28.74" y1="110.5" x2="162.38" y2="110.5"/><linearGradient id="F" xlink:href="#T"><stop offset="0" stop-color="#fff"/><stop offset="1" stop-color="#dbe2e9"/></linearGradient><linearGradient xlink:href="#D" id="G"/><linearGradient xlink:href="#F" id="H" x1="157.59" y1="128.29" x2="30.08" y2="128.29"/><linearGradient xlink:href="#J" id="I" x1="67.42" y1="54.58" x2="118.09" y2="80.24"/><linearGradient id="J" xlink:href="#T"><stop stop-color="#5d278f" offset="0"/><stop stop-color="#292376" offset="1"/></linearGradient><linearGradient xlink:href="#J" id="K" x1="34.34" y1="119.88" x2="85.01" y2="145.55"/><linearGradient id="L" y2="59.4" x2="55.96" y1="33.12" x1="10.44" xlink:href="#T"><stop stop-opacity=".25" stop-color="#fff" offset="0"/><stop stop-opacity="0" stop-color="#dbf9ea" offset="1"/></linearGradient><linearGradient id="M" y2="64.32" x2="31.83" y1="74.49" x1="15.99" xlink:href="#T"><stop stop-color="#787c80" offset="0"/><stop stop-color="#dbe2e9" offset="1"/></linearGradient><linearGradient id="N" gradientTransform="matrix(-0.5,-0.87,-0.87,0.5,-1254.13,-724.11)" y2="-716.44" x2="-1255.86" y1="-716.44" x1="-1337.67" xlink:href="#T"><stop stop-color="#787c80" offset="0"/><stop stop-color="#222831" offset="1"/></linearGradient><linearGradient id="O" y2="29.61" x2="35.88" y1="56.41" x1="-16.2" xlink:href="#T"><stop stop-color="#6b6f74" offset="0"/><stop stop-color="#53595f" offset="1"/></linearGradient><linearGradient id="P" y2="14.62" x2="26.8" y1="35.21" x1="-13.22" xlink:href="#T"><stop stop-opacity=".25" stop-color="#fff" offset="0"/><stop stop-opacity="0" stop-color="#dbf9ea" offset="1"/></linearGradient><path id="Q" d="M1088.4 178.797l.387 1.102 5.92-3.418-.376-1.11z"/><path id="R" d="M1089.4 191.797l.387 1.102 12.608-7.043-.376-1.11z"/><path id="S" d="M1153.69 184.34l7.7 4.44v1.424l-7.7-4.44z"/><linearGradient id="T" gradientUnits="userSpaceOnUse"/></defs><g transform="matrix(.264583 0 0 .264583 -284.200201 -40.618777)"><g transform="matrix(.585368 0 0 .585368 1074.146 153.51986)"><path d="M38.28 117.6c-2.05 1.2-2.06 3.1 0 4.28l49 28.5a8.16 8.16 0 0 0 7.39 0l74.17-42.82c2-1.18 2-3.1 0-4.28l-49-28.5a8.16 8.16 0 0 0-7.39 0L38.28 117.6" fill="url(#A)"/><path d="M5.2 43.34c-2.05 1.18-3 4.27-2.1 6.9l21.5 63.45c.9 2.63 3.28 3.8 5.32 2.63L104.1 73.5c2-1.18 3-4.27 2.1-6.9L84.68 3.14C83.8.5 81.4-.66 79.36.52z" fill="#160c0c"/><path d="M5.2 43.34c-2.05 1.18-3 4.28-2.1 6.9l21.52 63.45c.9 2.63 3.27 3.8 5.32 2.62L104.1 73.5c2-1.18 3-4.27 2.1-6.9L84.68 3.14C83.8.5 81.4-.66 79.36.52L5.2 43.34" fill="#161717" clip-path="url(#c)"/><path d="M5.2 43.34L79.36.52a3.25 3.25 0 0 1 1.72-.46L78.32 0a3.34 3.34 0 0 0-1.72.46L2.43 43.28c-2.05 1.18-3 4.28-2.1 6.9l21.5 63.45a4.12 4.12 0 0 0 3.61 3.09l2.76.06a4.14 4.14 0 0 1-3.61-3.09L3.1 50.24c-.9-2.63.04-5.72 2.1-6.9z" fill="#fff"/><path d="M6.8 48.63l74.47-43L102.5 68.2l-74.47 43L6.8 48.63" fill="url(#B)"/><path d="M30.28 115.53c-2.05 1.18-2.06 3.1 0 4.28l49 28.48a8.13 8.13 0 0 0 7.39 0l74.18-42.83c2-1.18 2-3.1 0-4.28l-49-28.5a8.22 8.22 0 0 0-7.39 0z" fill="url(#C)"/><path d="M30.28 115.53c-2.05 1.18-2.06 3.1 0 4.28l49 28.5a8.16 8.16 0 0 0 7.39 0l74.17-42.83c2-1.18 2-3.1 0-4.27l-49-28.5a8.14 8.14 0 0 0-7.38 0l-74.18 42.82" fill="url(#E)"/><path d="M63 132.87l-21.84-12.7a1 1 0 0 1-.54-.84 1 1 0 0 1 .54-.84l68.6-39.6a2 2 0 0 1 1.92 0l21.84 12.7a.93.93 0 0 1 0 1.69l-68.6 39.6a2 2 0 0 1-1 .24 1.93 1.93 0 0 1-.94-.24z" fill="url(#G)"/><g clip-path="url(#j)"><path d="M41.43 118.3a.43.43 0 0 0 0 .82l21.85 12.7a1.58 1.58 0 0 0 1.42 0l68.6-39.6a.43.43 0 0 0 0-.81l-21.86-12.7a1.53 1.53 0 0 0-1.41 0z" fill="#787c80"/><path d="M133.58 91.78a.48.48 0 0 1-.29.41l-68.6 39.6a1.58 1.58 0 0 1-1.42 0l-21.85-12.7a.48.48 0 0 1-.29-.41v1.63a.5.5 0 0 0 .29.41l21.85 12.7a1.58 1.58 0 0 0 1.42 0l68.6-39.6a.53.53 0 0 0 .29-.42z" fill="#aaafb5"/></g><path d="M30.25 119.8l49 28.48a8.13 8.13 0 0 0 7.39 0l74.18-42.83a2.6 2.6 0 0 0 1.54-2.15v4.08a2.62 2.62 0 0 1-1.54 2.15l-74.15 42.83a8.16 8.16 0 0 1-7.39 0l-49-28.5a2.58 2.58 0 0 1-1.51-2.12v-4.08a2.61 2.61 0 0 0 1.48 2.13z" fill="url(#H)"/><path d="M85 123.65l33.28-19.2a3.1 3.1 0 0 1 2.83 0l17.1 9.93a.87.87 0 0 1 0 1.64l-33.28 19.2a3.1 3.1 0 0 1-2.83 0L85 125.3c-.78-.45-.78-1.18 0-1.64" opacity=".5" fill="#aaafb5"/><path d="M137.55 90.37l-1.4.8a1.55 1.55 0 0 1-1.42 0l-25.9-15a.43.43 0 0 1 0-.82l1.4-.8a1.55 1.55 0 0 1 1.42 0l25.9 15.06c.4.22.4.6 0 .82" opacity=".05" fill="url(#I)"/><path d="M33.13 119l1.4-.8a1.53 1.53 0 0 1 1.41 0l25.92 15.06a.43.43 0 0 1 0 .81l-1.4.8a1.55 1.55 0 0 1-1.42 0l-25.9-15c-.4-.23-.38-.6 0-.83" opacity=".05" fill="url(#K)"/><path d="M37.32 116.53l3.694-2.33a1.59 1.59 0 0 1 1.41 0l1.4.82a.43.43 0 0 1 0 .82l-3.694 2.33a1.55 1.55 0 0 1-1.42 0l-1.4-.82a.43.43 0 0 1 0-.82" fill="#787c80"/><path d="M79.36.52L5.2 43.34c-2.05 1.18-3 4.28-2.1 6.9l21.52 63.45z" fill="url(#L)"/></g><g transform="matrix(.455775 0 0 .455775 1151.9388 165.34827)"><path d="M36.72 77.92l-5 2.9a7 7 0 0 1-7 0L2.64 68.05a1 1 0 0 1 0-1.73l5-2.88a7 7 0 0 1 7 0L36.72 76.2a1 1 0 0 1 0 1.73z" fill="url(#M)"/><path d="M.25 4.28l-.15 59A7.72 7.72 0 0 0 4 70l18.74 10.82a4.29 4.29 0 0 0 6.43-3.7l.14-59a7.71 7.71 0 0 0-3.85-6.7L6.68.58a4.29 4.29 0 0 0-6.43 3.7z" fill="url(#N)"/><path d="M3.88 2.82a2.79 2.79 0 0 0-2.71-.24 2.44 2.44 0 0 0-1 2.24L0 63.92a7.65 7.65 0 0 0 3.49 6l18.84 10.9a2.47 2.47 0 0 0 2.49.24 2 2 0 0 0 .82-.92 3.22 3.22 0 0 0 .31-1.5l.15-59.1a6.71 6.71 0 0 0-1-3.34 7 7 0 0 0-2.41-2.52h0z" fill="#161717"/><path d="M21.9 15.4L20 14.3c-.33-.2-.6 0-.6.34v.3c0 .86-.62 1.2-1.37.77L7.78 9.8a3 3 0 0 1-1.37-2.35v-.3a1.31 1.31 0 0 0-.6-1L3.93 5c-1.32-.76-2.4-.16-2.4 1.36l-.14 57a5.23 5.23 0 0 0 2.37 4.12l18 10.37c1.32.76 2.4.15 2.4-1.37l.14-57a5.2 5.2 0 0 0-2.37-4.12" fill="url(#O)"/><path d="M16.9 72.62a.45.45 0 0 1-.25-.07l-8.3-4.8a.51.51 0 0 1-.18-.69.49.49 0 0 1 .68-.18l8.3 4.8a.5.5 0 0 1-.25.93z" fill="#222831"/><path d="M21.9 15.4L20 14.3c-.33-.2-.6 0-.6.34v.3c0 .86-.62 1.2-1.37.77L7.78 9.8a3 3 0 0 1-1.37-2.35v-.3a1.31 1.31 0 0 0-.6-1L3.93 5c-1.32-.76-2.4-.16-2.4 1.36l-.1 37.24 22.77-5.25V19.5a5.2 5.2 0 0 0-2.33-4.12z" fill="url(#P)"/></g><g fill="#fff"><path d="M1080.282 182.07l1.152 3.394 2.99-1.727-1.152-3.394z"/><use xlink:href="#Q"/><use xlink:href="#Q" x="7.718" y="-4.457"/><use xlink:href="#Q" x="15.438" y="-8.914"/><use xlink:href="#Q" x="23.158" y="-13.371"/><use xlink:href="#R"/><use xlink:href="#R" x="1.124" y="3.063"/><use xlink:href="#R" x="2.124" y="6.125"/><path d="M1160.5 173.584l1.453.84v1.458l-1.453-.84zm-7.386-4.264l2.573 1.486v3.357l-2.573-1.486z"/><use xlink:href="#S"/><use xlink:href="#S" y="2.828"/><use xlink:href="#S" y="5.613"/></g></g></svg>