<svg xmlns="http://www.w3.org/2000/svg" width="89.896" height="51.761" viewBox="0 0 23.785 13.695" xmlns:v="https://vecta.io/nano"><defs><linearGradient id="A" gradientUnits="userSpaceOnUse" y2="54.09" x2="162.6" y1="34.93" x1="-16.08"><stop stop-color="#787c80" offset="0"/><stop stop-color="#ced4db" offset="1"/></linearGradient><linearGradient id="B" gradientUnits="userSpaceOnUse" y2="76.64" x2="167.23" y1="52.86" x1="-1.87"><stop stop-color="#aaafb5" offset="0"/><stop stop-color="#fff" offset="1"/></linearGradient><linearGradient id="C" gradientUnits="userSpaceOnUse" y2="28.37" x2="166.08" y1="15.16" x1="9.2"><stop stop-opacity=".25" stop-color="#fff" offset="0"/><stop stop-opacity="0" stop-color="#dbf9ea" offset="1"/></linearGradient><linearGradient id="D" x1="699.898" y1="222.901" x2="735.857" y2="222.901" gradientUnits="userSpaceOnUse"><stop stop-color="#147bd1" offset="0"/><stop stop-color="#05c3dd" offset="1"/></linearGradient></defs><g transform="matrix(.152475 0 0 .152475 0 .003097)"><path d="M66.6 2.22h0a7.18 7.18 0 0 1 3.4-.83 6.8 6.8 0 0 1 3.43.84h0l81 47.08a3.38 3.38 0 0 1 1.16 1 2.18 2.18 0 0 1 .4 1.19 2.51 2.51 0 0 1-1.48 2.07L94.66 88.35a7.77 7.77 0 0 1-7.07 0l-81-47.1a2.46 2.46 0 0 1-1.45-2A2.81 2.81 0 0 1 6.7 37z" fill="url(#A)"/><path d="M1.77 34.8c-2.35 1.36-2.36 3.56 0 4.9l78.8 45.82a9.35 9.35 0 0 0 8.48 0l58.5-33.77c2.36-1.36 2.37-3.56 0-4.92L68.75 1a9.32 9.32 0 0 0-8.48 0z" fill="#393d47"/><path d="M1.74 39.7l78.84 45.82a9.35 9.35 0 0 0 8.48 0l58.5-33.77a3 3 0 0 0 1.78-2.48v3.26a3 3 0 0 1-1.77 2.47l-58.5 33.78a9.37 9.37 0 0 1-8.49 0L1.75 43A3 3 0 0 1 0 40.53v-3.26a3 3 0 0 0 1.74 2.43z" fill="url(#B)"/><path d="M64.52 3a5.73 5.73 0 0 1 2.72.61l77.1 44.8a1 1 0 0 1 0 1.73L87.56 82.92a6.36 6.36 0 0 1-5.48 0L5 38.12a1 1 0 0 1 0-1.73L61.77 3.62A5.76 5.76 0 0 1 64.52 3h0" fill="#fff"/><path d="M117 63.38a.45.45 0 0 1-.18.18l-8.3 4.8a.5.5 0 0 1-.68-.18.51.51 0 0 1 .18-.69l8.3-4.8a.49.49 0 0 1 .68.18.47.47 0 0 1 0 .5z" fill="#e4e4e4"/><path d="M13.9 27.8L60.27 1a9.32 9.32 0 0 1 8.48 0l78.5 45.62z" fill="url(#C)"/><g stroke="none"><path d="M18.192 37.443l46.677-26.73 13.277 7.665-46.332 26.927z" fill="#3f72af"/><path d="M700.7 217.54l26.444 15.274 7.892-4.556-26.45-15.27z" fill="url(#D)" transform="matrix(1.832001 0 0 1.832001 -1247.1255 -350.47714)"/><path d="M54.728 37.577l28.332-16.36 14.883 8.593L69.6 46.17zM72.592 47.9l28.23-16.418 13.66 7.887-28.93 16.702z" fill="#dbe2e9"/></g><path d="M90.027 58.37l12.553 7.503 12.784-7.354-12.185-7.615zm17.416-9.926l12.493 7.437 11.58-6.687-12.687-7.325z" stroke="#dbe2e9" stroke-dasharray="1.5662682, 1.5662682" stroke-linecap="round" stroke-miterlimit="10" fill="none" stroke-width="1.488"/></g></svg>