<svg xmlns="http://www.w3.org/2000/svg" width="213.959" height="288.348" viewBox="0 0 56.61 76.292" xmlns:v="https://vecta.io/nano"><style><![CDATA[.B{fill:#dbe2e9}.C{fill:#00a9e0}.D{fill:#d6d8e5}.E{fill:#b1b4c4}.F{stroke-miterlimit:10}]]></style><g transform="matrix(-.186242 0 0 .186242 91.12283 .000655)"><path d="M311.4 382.18l-58-33.5c-4.2-2.42-3.66-6.64 1.17-9.43l37.58-21.7 73.15 42.23-37.58 21.7c-4.84 2.8-12.14 3.1-16.32.68z" opacity=".4" class="D"/><g class="E"><path d="M315.63 379.7l-58-33.5c-4.18-2.4-3.66-6.63 1.17-9.42l37.6-21.7 73.15 42.23L332 379c-4.88 2.8-12.2 3.1-16.37.7z"/><path d="M369.53 355.1l-3.38 1.95 3.38.26zM254.8 339.95l3.47 1.44-3.47.8z"/></g><path d="M315.63 377.47l-58-33.5c-4.18-2.42-3.66-6.63 1.17-9.42l37.6-21.7 73.15 42.24L332 376.8c-4.88 2.8-12.2 3.1-16.37.68z" class="D"/><g fill="#9ea1af"><path d="M361.47 325.34l8.06 29.76-72.96-42.14-9.05-30.04z"/><path d="M367.4 356.33l2.14-1.23-3.2-2.55z"/></g><path d="M359.14 326.47l8.24 29.86-73.14-42.24-9.05-30.04z" class="E"/><g fill="#c4c7d6"><path d="M482 407L195.7 241.7c-4-2.32-7.27-8.54-7.27-13.9V6.37c0-5.36 3.26-7.82 7.27-5.5L482 166.14c4 2.32 7.27 8.54 7.27 13.9v221.43c-.03 5.35-3.27 7.8-7.27 5.54z"/><path d="M486.6 407.4l-1.37-9.4-1.8 11.23z"/></g><path d="M187.93 2.24l3.12-1.8 4.5 2.57-4.9.7c-.12-.03-2.7-1.46-2.7-1.46z" class="E"/><path d="M479.34 408.47L193.1 243.2c-4-2.32-7.27-8.53-7.27-13.9V7.88c0-5.35 3.25-7.8 7.27-5.5l286.25 165.27c4 2.32 7.27 8.54 7.27 13.9V403c0 5.33-3.25 7.8-7.27 5.47z" fill="#e4e7f2"/><path d="M478.84 408.76L192.58 243.5c-4-2.32-7.27-8.54-7.27-13.9V8.17c0-5.35 3.26-7.8 7.27-5.5L478.84 168c4 2.3 7.27 8.53 7.27 13.9v221.37c0 5.36-3.26 7.82-7.27 5.5z" class="D"/><path d="M482.17 395.3L189 226l.1-216.94c0-2.22 1.56-3.12 3.48-2l286.26 165.26a7.7 7.7 0 0 1 3.48 6z" fill="#fff"/><path d="M304.72 102.08L210.8 47.86a3.42 3.42 0 0 1-1.42-2.73v-6.55c0-1 .63-1.53 1.42-1.08l93.92 54.22a3.45 3.45 0 0 1 1.42 2.73V101c0 1.05-.64 1.54-1.42 1.08zm-24.12 1.57L211.23 63.6a3.4 3.4 0 0 1-1.43-2.72v-3.26c0-1 .64-1.54 1.43-1.08L280.6 96.6a3.41 3.41 0 0 1 1.4 2.72v3.26c0 1.05-.62 1.54-1.4 1.08zm0 12.35l-69.37-40a3.4 3.4 0 0 1-1.43-2.72V70c0-1 .64-1.54 1.43-1.08L280.6 109a3.41 3.41 0 0 1 1.42 2.72v3.26c-.02 1.02-.64 1.5-1.42 1.02z" class="B"/><path d="M267.5 120.82l-56.28-32.5a3.4 3.4 0 0 1-1.43-2.72v-3.26c0-1 .64-1.54 1.43-1.08l56.28 32.5a3.43 3.43 0 0 1 1.43 2.73v3.26c0 1.05-.64 1.53-1.43 1.08z" class="C"/><path d="M304.72 231.84l-93.92-54.22a3.42 3.42 0 0 1-1.42-2.73v-6.55c0-1.05.63-1.53 1.42-1.08l93.92 54.22a3.45 3.45 0 0 1 1.42 2.73v6.55c0 1.05-.64 1.53-1.42 1.08zm-24.12 1.56l-69.37-40a3.43 3.43 0 0 1-1.43-2.73v-3.26c0-1.05.64-1.53 1.43-1.07l69.37 40a3.45 3.45 0 0 1 1.42 2.73v3.26c-.02 1.04-.64 1.52-1.42 1.07zm0 12.37l-69.37-40.05a3.42 3.42 0 0 1-1.43-2.72v-3.26c0-1 .64-1.53 1.43-1.07l69.37 40a3.45 3.45 0 0 1 1.42 2.73v3.26c-.02 1.08-.64 1.56-1.42 1.1z" class="B"/><path d="M267.5 250.57l-56.28-32.5a3.42 3.42 0 0 1-1.43-2.73v-3.26c0-1.05.64-1.53 1.43-1.07l56.28 32.5a3.43 3.43 0 0 1 1.43 2.73v3.26c0 1.05-.64 1.5-1.43 1.07z" class="C"/><path d="M329.85 247.94s10.36 8.7 25.32-3.18c10.68-8.76 20.23-3.76 25.55-.76s13 4.84 27.63 31.26c0 0 4.76 8.28 12.62 12.82s11.64 2.32 17.82-7 10.23-19.64 21.6-12.9v93.7L328.83 286v-38.67z" fill="#ecf0f4"/><path d="M301.26 208.22l-90-52a3.43 3.43 0 0 1-1.43-2.73v-51.93c0-1 .64-1.53 1.43-1.08l90 52a3.43 3.43 0 0 1 1.43 2.73v51.95c0 1.03-.64 1.5-1.43 1.06z" class="B"/><g stroke-width=".31" class="F"><path d="M328.83 245.76v40.22l131.55 75.94v-93.7" fill="none" stroke="#e9eaf2"/><path d="M380.53 244.47v71.26m40.25-26.2v49.42" stroke="#dbe2e9" class="B"/></g><path d="M328.83 247.33c23.34 14.47 26.64-18.24 52.07-3.56s21.92 33.8 40.7 44.65 19.2-31.5 38.8-20.2" fill="none" stroke="#e9eaf2" stroke-width="1.53" class="F"/><g class="C"><ellipse transform="rotate(330 380.55 244.488)" ry="4.39" rx="2.53" cy="244.47" cx="380.53"/><ellipse transform="matrix(.87 -.5 .5 .87 -72.43 266.14)" ry="4.39" rx="2.53" cy="268.23" cx="460.38"/><ellipse transform="matrix(.87 -.5 .5 .87 -87.96 249.08)" ry="4.39" rx="2.53" cy="288.66" cx="420.78"/><ellipse transform="rotate(330 328.847 247.334)" ry="4.39" rx="2.53" cy="247.33" cx="328.83"/></g><path d="M332.54 178.23l-5.4-3.1a3.43 3.43 0 0 1-1.43-2.73v-26c0-1.05.64-1.53 1.43-1.08l5.4 3.12a3.4 3.4 0 0 1 1.46 2.67v26.05c0 1.05-.67 1.53-1.46 1.08z" class="B"/><path d="M345 185.4l-5.4-3.12a3.4 3.4 0 0 1-1.43-2.72v-53c0-1 .64-1.54 1.43-1.08l5.4 3.12a3.43 3.43 0 0 1 1.43 2.73v53c-.04 1.04-.68 1.52-1.43 1.07z" class="C"/><path d="M369.8 199.73l-5.4-3.1a3.4 3.4 0 0 1-1.43-2.73v-47.84c0-1.05.64-1.53 1.43-1.08l5.4 3.1a3.43 3.43 0 0 1 1.43 2.73v47.85c0 1.05-.64 1.53-1.43 1.07z" class="B"/><path d="M382.2 206.9l-5.4-3.1a3.43 3.43 0 0 1-1.43-2.73v-39.64c0-1 .64-1.53 1.43-1.08l5.4 3.12a3.4 3.4 0 0 1 1.43 2.72v39.64c0 1.06-.64 1.54-1.43 1.08z" class="C"/><path d="M406.94 221.18l-5.4-3.1a3.42 3.42 0 0 1-1.42-2.73v-19.6c0-1.06.63-1.54 1.42-1.08l5.4 3.1a3.45 3.45 0 0 1 1.42 2.73v19.6c0 1.05-.64 1.53-1.42 1.08z" class="B"/><path d="M419.35 228.35l-5.35-3.12a3.4 3.4 0 0 1-1.43-2.72v-66.63c0-1.06.64-1.54 1.43-1.08l5.4 3.1a3.42 3.42 0 0 1 1.43 2.73v66.63c-.04 1.05-.68 1.53-1.47 1.08z" class="C"/><path d="M449.64 245.84l-5.4-3.12a3.4 3.4 0 0 1-1.43-2.72v-19.6c0-1.05.64-1.53 1.43-1.08l5.4 3.12a3.4 3.4 0 0 1 1.43 2.73v19.6c0 1.05-.64 1.53-1.43 1.08z" class="B"/><path d="M462.06 253l-5.4-3.12a3.4 3.4 0 0 1-1.43-2.73v-26c0-1.05.64-1.53 1.43-1.08l5.4 3.1a3.43 3.43 0 0 1 1.43 2.73v26.05c0 1.04-.64 1.5-1.43 1.04z" class="C"/></g></svg>