<svg xmlns="http://www.w3.org/2000/svg" width="303.999" height="142.5" viewBox="0 0 80.433 37.703" fill="#58bfe3" xmlns:v="https://vecta.io/nano"><rect transform="matrix(.997192 -.074886 -.074886 -.997192 -144.992 -67.238)" rx=".365" y="-115.402" x="166.136" height="2.65" width="2.65"/><rect transform="matrix(.997908 .064649 .064649 -.997908 -144.992 -67.238)" rx=".548" y="-84.691" x="172.421" height="4.239" width="4.239"/><g transform="matrix(.993633 .112664 .112664 -.993633 -144.992 -67.238)"><rect rx=".426" y="-80.462" x="170.341" height="2.622" width="2.622"/><rect rx=".305" y="-79.457" x="162.615" height="1.12" width="1.12"/><rect rx=".186" y="-74.37" x="167.46" height=".744" width=".744"/><rect width="1.204" height="1.204" x="162.366" y="-73.868" rx=".301"/><rect width="1.204" height="1.204" x="177.36" y="-79.618" rx=".301"/><rect width="2.622" height="2.622" x="182.538" y="-76.825" rx=".426"/><rect width="2.622" height="2.622" x="156.812" y="-75.986" rx=".426"/><rect width="1.629" height="1.629" x="171.327" y="-75.513" rx=".305"/></g><g transform="matrix(.806356 -.591431 -.591431 -.806356 -144.992 -67.238)"><rect rx=".19" y="-198.455" x="116.417" height=".76" width=".76"/><rect width="1.078" height="1.078" x="122.765" y="-200.829" rx=".311"/><rect width="1.23" height="1.23" x="108.998" y="-197.779" rx=".308"/><rect rx=".19" y="-199.926" x="113.309" height=".76" width=".76"/><rect width=".76" height=".76" x="124.764" y="-204.872" rx=".19"/><rect rx=".311" y="-199.978" x="127.651" height="1.078" width="1.078"/><rect width=".47" height=".47" x="105.465" y="-198.827" rx=".118"/><rect width=".47" height=".47" x="99.923" y="-195.468" rx=".118"/><rect rx=".308" y="-202.264" x="118.603" height="1.23" width="1.23"/></g><path d="M80.433 18.73l-.832.6a.31.31 0 0 0-.067.435l.616.84c.068.093.177.132.283.12zM0 23.98v1.64l.18.02c.168.02.318-.1.337-.268l.115-1.014c.02-.168-.1-.318-.268-.337z"/></svg>