<svg xmlns="http://www.w3.org/2000/svg" width="303.999" height="142.5" viewBox="0 0 80.433 37.703" xmlns:v="https://vecta.io/nano"><style><![CDATA[.B{fill:#58bfe3}]]></style><g transform="matrix(.990988 -.133952 .133952 .990988 -144.992 -67.238)" class="B"><rect rx=".188" y="122.043" x="197.521" height=".749" width=".749"/><rect width="1.062" height="1.062" x="203.856" y="119.202" rx=".307"/></g><path d="M80.433 16.414l-.887.12c-.168.023-.285.177-.263.345l.137 1.018c.023.168.176.285.345.263l.668-.1z" class="B"/><g transform="matrix(.990988 -.133952 .133952 .990988 -144.992 -67.238)" class="B"><rect width="1.212" height="1.212" x="189.387" y="123.045" rx=".304"/><rect rx=".188" y="120.092" x="194.534" height=".749" width=".749"/><rect width=".749" height=".749" x="202.878" y="114.711" rx=".188"/><rect rx=".307" y="116.738" x="210.163" height="1.062" width="1.062"/><rect width=".463" height=".463" x="187.025" y="121.723" rx=".116"/><rect width=".463" height=".463" x="181.339" y="124.487" rx=".116"/><rect rx=".304" y="117.787" x="199.754" height="1.212" width="1.212"/></g><rect transform="matrix(.962919 -.26979 -.26979 -.962919 -144.992 -67.238)" rx=".341" y="-148.175" x="139.596" height="2.47" width="2.47" class="B"/><rect transform="matrix(.996363 -.085212 -.085212 -.996363 -144.992 -67.238)" rx=".284" y="-114.458" x="136.382" height="1.518" width="1.518" class="B"/><rect transform="matrix(.991099 -.133129 -.133129 -.991099 -144.992 -67.238)" rx=".511" y="-121.439" x="149.442" height="3.95" width="3.95" class="B"/><g transform="matrix(.996363 -.085212 -.085212 -.996363 -144.992 -67.238)" class="B"><rect rx=".397" y="-117.748" x="149.898" height="2.444" width="2.444"/><rect rx=".284" y="-117.306" x="144.221" height="1.044" width="1.044"/><rect rx=".174" y="-112.565" x="148.735" height=".693" width=".693"/><rect width="1.122" height="1.122" x="142.935" y="-112.217" rx=".281"/><rect width="1.122" height="1.122" x="157.96" y="-117.456" rx=".281"/><rect width="2.444" height="2.444" x="161.721" y="-114.824" rx=".397"/></g></svg>