<svg xmlns="http://www.w3.org/2000/svg" width="303.999" height="142.5" viewBox="0 0 80.433 37.703" xmlns:v="https://vecta.io/nano"><style><![CDATA[.B{fill:#58bfe3}]]></style><g transform="matrix(.996363 -.085212 -.085212 -.996363 -144.992 -67.238)" class="B"><rect width=".693" height=".693" x="203.106" y="-113.112" rx=".174"/><rect rx=".284" y="-115.742" x="208.969" height=".983" width=".983"/><rect rx=".281" y="-112.184" x="195.577" height="1.122" width="1.122"/><rect width=".693" height=".693" x="200.341" y="-114.918" rx=".174"/><rect rx=".174" y="-119.63" x="209.941" height=".693" width=".693"/><rect width=".983" height=".983" x="212.989" y="-117.581" rx=".284"/><rect rx=".107" y="-113.408" x="193.392" height=".428" width=".428"/><rect rx=".107" y="-110.85" x="188.128" height=".428" width=".428"/><rect width="1.122" height="1.122" x="205.172" y="-117.051" rx=".281"/></g><rect transform="matrix(.997192 -.074886 -.074886 -.997192 -144.992 -67.238)" rx=".356" y="-107.356" x="161.268" height="2.583" width="2.583" class="B"/><rect transform="matrix(.997908 .064649 .064649 -.997908 -144.992 -67.238)" rx=".534" y="-80.097" x="169.417" height="4.131" width="4.131" class="B"/><g transform="matrix(.993633 .112664 .112664 -.993633 -144.992 -67.238)" class="B"><rect rx=".415" y="-74.044" x="164.708" height="2.555" width="2.555"/><rect rx=".297" y="-71.794" x="158.385" height="1.092" width="1.092"/><rect rx=".182" y="-68.372" x="164.711" height=".725" width=".725"/><rect width="1.173" height="1.173" x="155.474" y="-67.795" rx=".294"/><rect width="1.173" height="1.173" x="171.158" y="-74.279" rx=".294"/><rect width="2.555" height="2.555" x="181.807" y="-70.492" rx=".415"/><rect width="1.652" height="1.652" x="159.915" y="-68.284" rx=".309"/></g></svg>