<svg xmlns="http://www.w3.org/2000/svg" width="303.999" height="142.5" viewBox="0 0 80.433 37.703" fill="#58bfe3" xmlns:v="https://vecta.io/nano"><rect width="2.668" height="2.668" x="176.243" y="64.421" rx=".368" transform="matrix(.99857 .053469 -.053469 .99857 -144.992 -67.238)"/><rect width="4.268" height="4.268" x="159.32" y="94.959" rx=".552" transform="matrix(.996291 -.086043 .086043 .996291 -144.992 -67.238)"/><g transform="matrix(.990988 -.133952 .133952 .990988 -144.992 -67.238)"><rect width="2.64" height="2.64" x="146.912" y="98.854" rx=".429"/><rect width="1.128" height="1.128" x="140.778" y="99.332" rx=".307"/><rect width=".749" height=".749" x="145.656" y="104.454" rx=".188"/><rect rx=".304" y="104.83" x="139.389" height="1.212" width="1.212"/><rect rx=".304" y="99.169" x="155.623" height="1.212" width="1.212"/><rect rx=".429" y="101.174" x="161.951" height="2.64" width="2.64"/></g><g transform="matrix(.993633 .112664 .112664 -.993633 -144.992 -67.238)"><rect width=".744" height=".744" x="219.725" y="-58.539" rx=".186"/><rect rx=".305" y="-61.361" x="226.017" height="1.055" width="1.055"/></g><path d="M79.782 23.907c-.168-.02-.318.1-.337.268l-.115 1.013c-.02.168.1.318.268.337l.835.095v-1.64z"/><g transform="matrix(.993633 .112664 .112664 -.993633 -144.992 -67.238)"><rect rx=".301" y="-57.544" x="211.646" height="1.204" width="1.204"/><rect width=".744" height=".744" x="216.759" y="-60.477" rx=".186"/><rect rx=".186" y="-65.822" x="225.046" height=".744" width=".744"/><rect width="1.055" height="1.055" x="232.282" y="-63.808" rx=".305"/><rect rx=".115" y="-58.857" x="209.301" height=".46" width=".46"/><rect rx=".115" y="-56.112" x="203.652" height=".46" width=".46"/><rect width="1.204" height="1.204" x="221.943" y="-62.766" rx=".301"/></g><path d="M.13 16.397l-.13.018v1.656l.35-.048c.168-.023.286-.177.263-.345L.475 16.66c-.023-.168-.177-.286-.345-.263z"/></svg>