<svg xmlns="http://www.w3.org/2000/svg" width="303.999" height="142.5" viewBox="0 0 80.433 37.703" fill="#58bfe3" xmlns:v="https://vecta.io/nano"><rect width="2.707" height="2.707" x="62.291" y="-180.03" rx=".373" transform="matrix(.681715 -.731618 -.731618 -.681715 -144.992 -67.238)"/><rect width="4.329" height="4.329" x="81.21" y="-162.588" rx=".56" transform="matrix(.776917 -.629603 -.629603 -.776917 -144.992 -67.238)"/><g transform="matrix(.806356 -.591431 -.591431 -.806356 -144.992 -67.238)"><rect width="2.678" height="2.678" x="82.235" y="-161.531" rx=".435"/><rect width="1.144" height="1.144" x="74.91" y="-158.614" rx=".311"/><rect width=".76" height=".76" x="80.75" y="-155.154" rx=".19"/><rect rx=".308" y="-152.278" x="73.697" height="1.23" width="1.23"/><rect rx=".308" y="-162.65" x="89.836" height="1.23" width="1.23"/><rect rx=".435" y="-154.835" x="68.924" height="2.678" width="2.678"/><rect rx=".435" y="-159.629" x="97.913" height="2.678" width="2.678"/></g><g transform="matrix(.993633 .112664 .112664 -.993633 -144.992 -67.238)"><rect rx=".189" y="-50.579" x="218.133" height=".755" width=".755"/><rect width="1.07" height="1.07" x="224.73" y="-52.574" rx=".309"/><rect width="1.652" height="1.652" x="229.892" y="-59.191" rx=".309"/><rect width="1.221" height="1.221" x="211.472" y="-49.087" rx=".306"/><rect rx=".189" y="-53.045" x="214.761" height=".755" width=".755"/><rect width=".755" height=".755" x="224.24" y="-56.829" rx=".189"/><rect rx=".309" y="-55.459" x="231.232" height="1.07" width="1.07"/><rect width=".466" height=".466" x="207.389" y="-50.29" rx=".117"/><rect width=".466" height=".466" x="201.986" y="-47.575" rx=".117"/><rect rx=".306" y="-54.437" x="220.438" height="1.221" width="1.221"/><rect rx=".306" y="-55.019" x="226.877" height="1.221" width="1.221"/></g><path d="M.238 18.668a.31.31 0 0 0-.232.057L0 18.73v2.007c.053-.006.105-.02.15-.054l.84-.616a.31.31 0 0 0 .067-.435l-.616-.84a.31.31 0 0 0-.204-.124z"/></svg>