<svg xmlns="http://www.w3.org/2000/svg" xmlns:xlink="http://www.w3.org/1999/xlink" width="201.339" height="212.803" viewBox="0 0 53.271 56.304" xmlns:v="https://vecta.io/nano"><g transform="matrix(-.14316 0 0 .14316 54.89191 -4.243306)"><g fill="#b1b4c4"><path d="M378.18 323.54L171.46 204.2c-2.9-1.67-5.25-6.16-5.25-10V34.25c0-3.86 2.35-5.64 5.25-4l206.72 119.4c2.9 1.67 5.25 6.16 5.25 10v159.9c0 3.9-2.35 5.68-5.25 4z"/><path d="M380.54 317.08l-1.3 8.1 2.3-1.32z"/><path d="M165.84 31.27l2.25-1.3 3.24 1.85-3.53.5c-.08-.02-1.96-1.05-1.96-1.05z" opacity=".4"/></g><path d="M376.3 324.64L169.56 205.3c-2.9-1.68-5.25-6.17-5.25-10V35.35c0-3.87 2.35-5.64 5.25-4L376.3 150.73c2.9 1.67 5.25 6.17 5.25 10v159.94c0 3.86-2.35 5.64-5.25 3.97z" fill="#e4e7f2"/><path d="M375.92 324.85L169.2 205.5c-2.9-1.67-5.25-6.16-5.25-10V35.56c0-3.87 2.35-5.65 5.25-4l206.72 119.38c2.9 1.67 5.25 6.16 5.25 10v159.94c0 3.86-2.35 5.64-5.25 3.97z" fill="#d6d8e5"/><g fill="#fff"><path d="M378.33 315.12L166.57 192.86l.1-156.66c0-1.6 1.13-2.26 2.52-1.46L375.92 154.1a5.55 5.55 0 0 1 2.52 4.35z"/><path d="M378.3 315L166.55 192.75l.1-156.67c0-1.6 1.13-2.25 2.52-1.45L375.9 154a5.56 5.56 0 0 1 2.52 4.36z" opacity=".5"/></g><path d="M220 421.802L13.28 302.442c-2.9-1.67-2.53-4.6.82-6.53l138.48-79.95c3.35-1.93 8.4-2.14 11.3-.47l206.72 119.35c2.9 1.68 2.54 4.6-.8 6.53l-138.48 80c-3.32 1.9-8.4 2.1-11.32.43z" opacity=".4" fill="#d6d8e5"/><g fill="#b1b4c4"><path d="M224.52 415.06L17.8 295.7c-2.9-1.67-2.54-4.6.8-6.53l138.5-80c3.34-1.93 8.4-2.14 11.3-.47l206.72 119.4c2.9 1.68 2.54 4.6-.8 6.53l-138.48 80c-3.35 1.9-8.42 2.1-11.32.43z"/><path d="M20.22 290.94L15.84 293v-3.9zM377.1 327.2l-3.24 1.1 2.15 3.16 1.1-.46z"/></g><path d="M224.52 411.77L17.8 292.42c-2.9-1.67-2.54-4.6.8-6.53l138.5-79.95c3.34-1.94 8.4-2.15 11.3-.47l206.72 119.35c2.9 1.67 2.54 4.6-.8 6.53L235.84 411.3c-3.35 1.94-8.42 2.15-11.32.47z" fill="#e4e7f2"/><path d="M224.52 411.27L17.8 291.9c-2.9-1.67-2.54-4.6.8-6.53l138.5-79.95c3.34-1.93 8.4-2.14 11.3-.47L375.13 324.3c2.9 1.68 2.54 4.6-.8 6.53l-138.48 80c-3.35 1.9-8.42 2.1-11.32.43z" fill="#d6d8e5"/><g fill="#2b303f"><path d="M153.26 232.4l-9.63-5.56c-.78-.45-.68-1.24.22-1.77l9.2-5.3a3.42 3.42 0 0 1 3.06-.13l9.63 5.56c.78.45.7 1.25-.22 1.77l-9.2 5.3a3.39 3.39 0 0 1-3.06.13z"/><use xlink:href="#B"/><path d="M180.67 248.22l-9.67-5.55c-.78-.46-.68-1.25.22-1.77l9.2-5.3a3.39 3.39 0 0 1 3.06-.12l9.63 5.55c.78.46.68 1.25-.22 1.77l-9.2 5.3a3.39 3.39 0 0 1-3.02.12z"/><use xlink:href="#C"/><use xlink:href="#D"/><path d="M221.4 271.73l-9.63-5.55c-.78-.46-.68-1.25.22-1.77l9.2-5.3a3.39 3.39 0 0 1 3.06-.12l9.63 5.55c.78.46.68 1.25-.22 1.77l-9.2 5.3a3.39 3.39 0 0 1-3.06.12zm13.6 7.87l-9.6-5.6c-.8-.45-.7-1.24.22-1.77l9.18-5.3a3.44 3.44 0 0 1 3.07-.13l9.62 5.56c.8.45.7 1.25-.22 1.77l-9.18 5.3a3.39 3.39 0 0 1-3.08.17zm13.64 7.87L239 281.9c-.8-.45-.7-1.25.22-1.77l9.18-5.3a3.39 3.39 0 0 1 3.06-.13l9.63 5.56c.8.45.7 1.24-.22 1.77l-9.2 5.3a3.42 3.42 0 0 1-3.04.13z"/><use xlink:href="#E"/><path d="M275.9 303.2l-9.62-5.56c-.8-.45-.7-1.24.22-1.77l9.18-5.3a3.41 3.41 0 0 1 3.07-.12l9.62 5.55c.8.46.7 1.25-.22 1.77l-9.18 5.3a3.41 3.41 0 0 1-3.07.13zm13.62 7.87l-9.63-5.56c-.78-.45-.68-1.24.22-1.77l9.2-5.3a3.42 3.42 0 0 1 3.06-.13l9.63 5.56c.78.45.68 1.24-.22 1.77l-9.2 5.3a3.42 3.42 0 0 1-3.06.13z"/><use xlink:href="#F"/><path d="M316.77 326.8l-9.62-5.56c-.8-.45-.7-1.24.22-1.76l9.18-5.3a3.39 3.39 0 0 1 3.06-.12l9.63 5.55c.78.46.7 1.25-.22 1.77l-9.2 5.3a3.36 3.36 0 0 1-3.06.13zM337 338.46l-16.2-9.35c-.78-.45-.7-1.24.22-1.77l9.2-5.3a3.42 3.42 0 0 1 3.06-.13l16.2 9.35c.78.45.68 1.24-.22 1.77l-9.2 5.3a3.42 3.42 0 0 1-3.06.13zM160.27 251.7l-9.63-5.55c-.8-.46-.7-1.25.22-1.77l9.18-5.3a3.41 3.41 0 0 1 3.07-.12l9.62 5.55c.8.46.7 1.25-.22 1.77l-9.18 5.3a3.39 3.39 0 0 1-3.06.12zm13.63 7.87l-9.6-5.57c-.8-.46-.7-1.25.22-1.77l9.18-5.3a3.41 3.41 0 0 1 3.07-.12l9.62 5.55c.8.46.7 1.25-.22 1.77l-9.16 5.33a3.41 3.41 0 0 1-3.09.12zm13.66 7.88l-9.62-5.55c-.8-.46-.7-1.25.22-1.77l9.18-5.3a3.38 3.38 0 0 1 3.07-.13l9.62 5.56c.8.45.7 1.24-.22 1.76l-9.18 5.3a3.41 3.41 0 0 1-3.07.12z"/><use xlink:href="#F" x="-101.94" y="-43.6"/><path d="M214.75 283.15l-9.62-5.56c-.8-.45-.7-1.24.22-1.76l9.18-5.3a3.41 3.41 0 0 1 3.07-.12l9.62 5.55c.8.46.7 1.25-.22 1.77l-9.18 5.3a3.38 3.38 0 0 1-3.07.13z"/><use xlink:href="#G"/><use xlink:href="#G" x="13.65" y="7.9"/><path d="M255.7 306.8l-9.62-5.55c-.8-.46-.7-1.25.22-1.77l9.18-5.3a3.39 3.39 0 0 1 3.06-.12l9.63 5.55c.8.46.7 1.25-.22 1.77l-9.18 5.3a3.41 3.41 0 0 1-3.07.12zm13.65 7.87l-9.62-5.55c-.8-.46-.7-1.25.22-1.77l9.18-5.3a3.39 3.39 0 0 1 3.06-.12l9.63 5.56c.78.45.7 1.24-.22 1.76l-9.2 5.3a3.39 3.39 0 0 1-3.06.12zm13.65 7.88l-9.63-5.55c-.78-.46-.68-1.25.22-1.77l9.2-5.3a3.39 3.39 0 0 1 3.06-.13l9.63 5.56c.78.45.7 1.24-.22 1.76l-9.2 5.3a3.39 3.39 0 0 1-3.06.12zm13.65 7.88l-9.65-5.55c-.78-.46-.68-1.25.22-1.77l9.2-5.3a3.39 3.39 0 0 1 3.06-.13l9.63 5.56c.78.45.68 1.24-.22 1.76l-9.2 5.3a3.39 3.39 0 0 1-3.04.12zm13.65 7.9l-9.63-5.56c-.78-.46-.68-1.25.22-1.77l9.2-5.3a3.39 3.39 0 0 1 3.06-.13l9.63 5.56c.78.45.68 1.24-.22 1.77l-9.2 5.3a3.42 3.42 0 0 1-3.06.13zM146.62 243.8l-16.2-9.34c-.8-.46-.7-1.25.22-1.77l9.18-5.3a3.38 3.38 0 0 1 3.07-.13l16.18 9.34c.8.46.7 1.25-.22 1.77l-9.18 5.3a3.39 3.39 0 0 1-3.06.12zM336.3 339l-9.62-5.55a3.17 3.17 0 0 0-2.86 0l-9.7 5.55a.87.87 0 0 0 0 1.65l.77.44a.8.8 0 0 1 0 1.52l-10.26 5.92c-.8.46-.8 1.2 0 1.65l6.13 3.54a3.17 3.17 0 0 0 2.86 0l11.6-6.7 1.43-.82 1.44-.83 8.27-4.78c.74-.45.75-1.18-.04-1.6zm-235.8-76.07l-9.63-5.56c-.78-.45-.68-1.24.22-1.77l9.2-5.3a3.42 3.42 0 0 1 3.06-.13l9.63 5.56c.78.46.68 1.25-.22 1.77l-9.2 5.3a3.39 3.39 0 0 1-3.06.13zm13.57 7.85l-9.62-5.56c-.8-.46-.7-1.25.22-1.77l9.18-5.3a3.41 3.41 0 0 1 3.07-.13l9.62 5.56c.8.45.7 1.24-.22 1.77l-9.18 5.3a3.44 3.44 0 0 1-3.07.13zm13.6 7.84l-9.66-5.56c-.8-.45-.7-1.24.22-1.77l9.18-5.3a3.42 3.42 0 0 1 3.06-.13l9.63 5.56c.8.45.7 1.25-.22 1.77l-9.18 5.3a3.41 3.41 0 0 1-3.03.13zm115.7 66.8l-9.63-5.55c-.78-.46-.68-1.25.22-1.77l9.2-5.3a3.36 3.36 0 0 1 3.06-.13l9.63 5.56c.78.45.7 1.24-.22 1.76l-9.2 5.3a3.39 3.39 0 0 1-3.06.12z"/><use xlink:href="#C" x="62.86" y="97.27"/><path d="M270.54 361.1l-9.62-5.55c-.8-.46-.7-1.25.22-1.77l9.18-5.3a3.41 3.41 0 0 1 3.07-.12l9.62 5.55c.8.46.7 1.25-.22 1.77l-9.2 5.32a3.41 3.41 0 0 1-3.07.11zm13.6 7.9l-9.62-5.56c-.8-.45-.7-1.24.22-1.77l9.18-5.3a3.42 3.42 0 0 1 3.06-.13l9.63 5.56c.8.45.7 1.24-.22 1.77l-9.18 5.3a3.44 3.44 0 0 1-3.07.13zm-139.38-80.52l-13.13-7.57c-.78-.46-.68-1.25.22-1.77l9.2-5.3a3.36 3.36 0 0 1 3.06-.13l13.13 7.58c.78.45.68 1.24-.22 1.76l-9.2 5.3a3.39 3.39 0 0 1-3.06.12zm85.03 49.1L216.66 330c-.8-.45-.7-1.24.22-1.77l9.18-5.3a3.44 3.44 0 0 1 3.07-.13l13.12 7.58c.8.45.7 1.25-.22 1.77l-9.18 5.3a3.41 3.41 0 0 1-3.07.13zm-17.08-9.88l-64-36.94c-.78-.45-.7-1.24.22-1.77l9.2-5.3a3.42 3.42 0 0 1 3.06-.13l64 36.95c.8.45.7 1.24-.22 1.76l-9.18 5.3a3.39 3.39 0 0 1-3.07.12zm-61.93-66.24l-9.63-5.56c-.78-.45-.7-1.24.22-1.77l9.2-5.3a3.42 3.42 0 0 1 3.06-.13l9.62 5.56c.8.45.7 1.25-.22 1.77l-9.18 5.3a3.39 3.39 0 0 1-3.06.13z"/><use xlink:href="#B" x="-2.52" y="29.05"/><path d="M178 277.17l-9.63-5.55c-.78-.46-.7-1.25.22-1.77l9.2-5.3a3.39 3.39 0 0 1 3.06-.13l9.63 5.56c.78.45.68 1.24-.22 1.77l-9.2 5.3a3.39 3.39 0 0 1-3.06.12zm13.6 7.83l-9.6-5.52c-.78-.46-.68-1.25.22-1.77l9.2-5.3a3.39 3.39 0 0 1 3.06-.12l9.63 5.55c.78.46.68 1.25-.22 1.77l-9.2 5.3a3.39 3.39 0 0 1-3.09.09zm13.6 7.9l-9.63-5.56c-.78-.45-.68-1.24.22-1.76l9.2-5.3a3.39 3.39 0 0 1 3.06-.12l9.63 5.55c.78.46.68 1.25-.22 1.77l-9.2 5.3a3.39 3.39 0 0 1-3.06.13z"/><use xlink:href="#C" x="24.68" y="44.75"/><use xlink:href="#H"/><path d="M246 316.47l-9.63-5.56c-.78-.46-.68-1.25.22-1.77l9.2-5.3a3.39 3.39 0 0 1 3.06-.13l9.63 5.56c.78.45.7 1.24-.22 1.77l-9.2 5.3a3.42 3.42 0 0 1-3.06.13zm13.65 7.85l-9.65-5.55c-.8-.46-.7-1.25.22-1.77l9.18-5.3a3.39 3.39 0 0 1 3.06-.12l9.63 5.55c.78.46.7 1.25-.22 1.77l-9.2 5.3a3.39 3.39 0 0 1-3.03.12zm13.6 7.86l-9.62-5.56c-.8-.45-.7-1.24.22-1.76l9.18-5.3a3.39 3.39 0 0 1 3.06-.12l9.63 5.55c.8.46.7 1.25-.22 1.77l-9.18 5.3a3.38 3.38 0 0 1-3.07.13zm13.6 7.82l-9.62-5.56c-.8-.45-.7-1.24.22-1.77l9.18-5.3a3.44 3.44 0 0 1 3.07-.13l9.62 5.56c.8.45.7 1.25-.22 1.77l-9.18 5.3a3.41 3.41 0 0 1-3.07.13zm13.6 7.9l-9.62-5.56c-.8-.45-.7-1.24.22-1.77l9.18-5.3a3.44 3.44 0 0 1 3.07-.13l9.67 5.56c.8.45.7 1.24-.22 1.77l-9.18 5.3a3.44 3.44 0 0 1-3.12.13zm-163.32-94.3l-19.9-11.5c-.8-.46-.7-1.25.22-1.77l9.18-5.3a3.41 3.41 0 0 1 3.07-.13l19.9 11.5c.8.46.7 1.25-.22 1.77l-9.18 5.3a3.39 3.39 0 0 1-3.06.13z"/><use xlink:href="#G" x="-97.6" y="-25.82"/><path d="M144.4 273l-9.62-5.56c-.8-.45-.7-1.24.22-1.77l9.18-5.3a3.42 3.42 0 0 1 3.06-.13l9.63 5.56c.78.45.7 1.25-.22 1.77l-9.2 5.3a3.39 3.39 0 0 1-3.06.13z"/><use xlink:href="#H" x="-74.43" y="-27.7"/><path d="M171.63 288.75L162 283.2c-.78-.46-.68-1.25.22-1.77l9.2-5.3a3.39 3.39 0 0 1 3.06-.12l9.63 5.55c.78.46.68 1.25-.22 1.77l-9.2 5.3a3.39 3.39 0 0 1-3.06.12zm13.6 7.85l-9.63-5.56c-.78-.45-.7-1.24.22-1.77L185 284a3.42 3.42 0 0 1 3.06-.13l9.62 5.56c.8.45.7 1.25-.22 1.77l-9.18 5.3a3.39 3.39 0 0 1-3.04.11z"/><use xlink:href="#D" x="-8.92" y="40.6"/><use xlink:href="#G" x="-15.95" y="21.32"/><path d="M226.06 320.18l-9.62-5.56c-.8-.45-.7-1.24.22-1.77l9.18-5.3a3.42 3.42 0 0 1 3.06-.13l9.63 5.56c.78.46.7 1.25-.22 1.77l-9.2 5.3a3.39 3.39 0 0 1-3.06.13zm13.6 7.82l-9.67-5.52c-.78-.45-.68-1.25.22-1.77l9.2-5.3a3.39 3.39 0 0 1 3.06-.13l9.63 5.56c.78.45.68 1.24-.22 1.77l-9.2 5.3a3.42 3.42 0 0 1-3.02.09z"/><use xlink:href="#E" x="-8.99" y="40.57"/><path d="M266.9 343.75l-9.63-5.56c-.78-.45-.7-1.24.22-1.77l9.2-5.3a3.42 3.42 0 0 1 3.06-.13l9.62 5.56c.8.46.7 1.25-.22 1.77l-9.18 5.3a3.39 3.39 0 0 1-3.06.13zm30.44 17.58l-26.47-15.28c-.8-.45-.7-1.24.22-1.77l9.18-5.3a3.44 3.44 0 0 1 3.07-.13l26.47 15.28c.78.46.68 1.25-.22 1.77l-9.2 5.3a3.39 3.39 0 0 1-3.06.12zm-180.14-104l-13.12-7.58c-.8-.45-.7-1.25.22-1.77l9.18-5.3a3.41 3.41 0 0 1 3.07-.13l13.12 7.58c.8.45.7 1.24-.22 1.77l-9.18 5.3a3.44 3.44 0 0 1-3.07.13zm233.43 73.23L157.36 219c-.78-.45-.7-1.25.22-1.77l4.6-2.65a3.44 3.44 0 0 1 3.07-.13L358.5 326c.78.45.68 1.24-.22 1.77l-4.6 2.65a3.39 3.39 0 0 1-3.06.14z"/></g><path d="M230.9 343.25a2.91 2.91 0 0 1-1.33 1.39l-53.2 30.7a6.54 6.54 0 0 1-5.89.25L79.6 323.1a2 2 0 0 1-.92-1c-.33-.8.13-1.74 1.34-2.44L133.2 289a6.57 6.57 0 0 1 5.89-.24l90.9 52.48a1.58 1.58 0 0 1 .9 2.01z" fill="#b1b4c4"/><path d="M230.9 343.25a2.91 2.91 0 0 1-1.33 1.39l-53.2 30.7a6.54 6.54 0 0 1-5.89.25L79.6 323.1a2 2 0 0 1-.92-1 2.92 2.92 0 0 1 1.32-1.34l53.2-30.7a6.54 6.54 0 0 1 5.89-.25L230 342.3a2.05 2.05 0 0 1 .9.95z" fill="#c3c6d1"/><path d="M365.34 322.1L172.07 210.52a3.43 3.43 0 0 1-1.42-2.72v-2.27c0-1.05.64-1.53 1.42-1.08L365.34 316a3.39 3.39 0 0 1 1.42 2.72V321c0 1.07-.63 1.55-1.42 1.1z" fill="#2b303f"/><path d="M299.423 249.144l-17.956-10.346c-2.246-1.298-4.073-4.788-4.073-7.773V211.77c0-3 1.827-4.376 4.073-3.1l17.956 10.377c2.254 1.298 4.073 4.788 4.073 7.773v19.254c-.03 3-1.85 4.376-4.073 3.078zm33.487 21.492L314.984 260.3c-2.246-1.298-4.073-6.607-4.073-9.203v-22.48c0-3 1.827-4.376 4.073-3.1l17.925 10.346c2.254 1.298 4.073 4.788 4.073 7.773v22.48c0 2.643-1.82 5.838-4.073 4.54z" fill="#e9eaf2"/><path d="M324.048 253.753c-3.646-2.107-6.615-7.252-6.615-11.465s2.97-5.93 6.615-3.824 6.623 7.252 6.623 11.465-2.97 5.93-6.623 3.824zm0-13.33c-2.713-1.555-4.92-.288-4.92 2.845a10.882 10.882 0 0 0 4.92 8.55c2.72 1.555 4.928.295 4.928-2.837a10.882 10.882 0 0 0-4.928-8.558zm-1.182 1.467l1.695.98v3.086l2.425 3.848-1.12.832-3-4.773z" fill="#00a9e0"/><path d="M367.7 288.546L349.765 278.2c-2.246-1.306-4.073-7.15-4.073-9.755v-20.692c0-2.596 1.827-3.653 4.073-2.332l17.925 10.354a8.986 8.986 0 0 1 4.073 7.05v20.7c0 2.573-1.82 6.32-4.073 5.02z" fill="#e9eaf2"/><path d="M358.728 263.742c-1.08-.622-1.95-.117-1.95 1.135a4.306 4.306 0 0 0 1.951 3.381c1.08.622 1.96.117 1.96-1.127a4.345 4.345 0 0 0-1.959-3.389zm5.216.777l-1.555-.902a1.275 1.275 0 0 1-.513-.723l-.404-1.64a1.321 1.321 0 0 0-.521-.723l-4.43-2.557c-.218-.124-.443-.07-.513.132l-.404 1.166a.334.334 0 0 1-.513.132l-1.555-.902c-.715-.42-1.298-.077-1.298.777v6.778a2.884 2.884 0 0 0 1.298 2.254l10.43 6.024c.715.412 1.306.077 1.306-.777v-6.8a2.899 2.899 0 0 0-1.329-2.262zm-5.216 5.27a7.221 7.221 0 0 1-3.257-5.643c0-2.083 1.46-2.923 3.257-1.88a7.182 7.182 0 0 1 3.257 5.643c0 2.052-1.454 2.9-3.257 1.858zm4.757-2.977a.995.995 0 0 1-.451-.777c0-.295.202-.412.45-.264a.995.995 0 0 1 .459.777c0 .272-.202.4-.46.24zM294.16 228.46c0 3.506-5.496 8.06-5.496 8.06s-5.503-10.882-5.503-14.4 2.464-4.928 5.503-3.18a12.165 12.165 0 0 1 5.496 9.53z" fill="#00a9e0"/><g fill="#e9eaf2"><ellipse transform="rotate(330)" ry="5.084" rx="2.938" cy="339.229" cx="137.468"/><path d="M367.776 247.926L248.52 179.068c-2.016-1.153-3.64-4.27-3.64-6.945v-80.15c0-2.674 1.623-3.904 3.64-2.742l119.257 68.85c2.007 1.162 3.63 4.27 3.63 6.953v80.142c0 2.682-1.623 3.912-3.63 2.75z"/></g><path d="M353.997 189.66l-92.435-53.363c-2.238-1.298-4.058-4.766-4.058-7.748v-6.04c0-3 1.82-4.357 4.058-3.067l92.435 53.363c2.238 1.3 4.05 4.758 4.05 7.748v6.04c0 3-1.81 4.356-4.05 3.067z" fill="#fff"/><path d="M303.727 187.8l-42.164-24.345c-2.238-1.3-4.058-4.758-4.058-7.748v-6.005c0-3 1.82-4.356 4.058-3.067l42.164 24.345c2.238 1.3 4.05 4.758 4.05 7.748v5.997c0 3-1.81 4.365-4.05 3.075z" fill="#00a9e0"/><path d="M266.497 230.108l-17.956-10.346c-2.246-1.298-4.073-4.788-4.073-7.773v-19.254c0-3 1.827-4.376 4.073-3.11l17.956 10.377c2.254 1.298 4.073 4.788 4.073 7.773v19.254c-.03 3-1.85 4.376-4.073 3.078z" fill="#e9eaf2"/><g fill="#00a9e0"><g transform="matrix(-.057061 -.032944 0 .076082 265.00683 202.62086)"><path d="M24.026 100.362a17.66 17.66 0 0 0-17.767 17.767v74.008a17.66 17.66 0 0 0 17.767 17.767 17.66 17.66 0 0 0 17.767-17.767V118.13a17.66 17.66 0 0 0-17.767-17.767zm207.223 0a17.66 17.66 0 0 0-17.767 17.767v74.008a17.767 17.767 0 1 0 35.535 0V118.13a17.66 17.66 0 0 0-17.767-17.767zM98.034 184.818a17.66 17.66 0 0 0-17.767 17.767v74.008a17.66 17.66 0 0 0 17.767 17.767 17.66 17.66 0 0 0 17.767-17.767v-74.008a17.66 17.66 0 0 0-17.767-17.767zm59.207 0a17.66 17.66 0 0 0-17.767 17.767v74.008a17.66 17.66 0 0 0 17.767 17.767 17.66 17.66 0 0 0 17.767-17.767v-74.008a17.66 17.66 0 0 0-17.767-17.767z"/><path d="M178.035 7.45c-.392-.17-.8-.347-1.21-.328-.9-.01-1.755.44-2.236 1.306l-12.67 22.856c-10.374-4.615-22.002-7.183-34.28-7.183s-23.906 2.58-34.28 7.18L80.69 8.44c-.474-.867-1.34-1.316-2.236-1.3-.425 0-.833.093-1.21.3-1.258.705-1.662 2.17-.964 3.436l12.51 22.606C64.714 46.02 48.45 69.83 48.418 97.16l158.44-.001c0-27.313-16.296-51.154-40.375-63.683l12.51-22.614c.703-1.27.3-2.704-.964-3.4zm-11.268 48c2.37 1.026 4.054 3.375 4.054 6.088 0 3.617-2.99 6.618-6.607 6.618s-6.607-3.008-6.607-6.62c0-3.618 2.99-6.618 6.607-6.618.9-.003 1.763.2 2.553.53zm40.09 47.952l-158.44-.001v114.855c0 10.613 8.54 19.16 19.15 19.16l120.138-.02a19.1 19.1 0 0 0 19.151-19.141zM93.614 55.446c2.368 1.025 4.053 3.374 4.053 6.087 0 3.617-2.99 6.618-6.607 6.618s-6.607-3.008-6.607-6.62c0-3.618 2.99-6.62 6.607-6.62.9-.003 1.765.2 2.554.53z"/></g><rect width="73" height="33.617" x="-273.562" y="-52.769" rx="2.797" ry="3.23" transform="matrix(-.866025 -.5 0 1 0 0)"/></g><rect ry="3.23" rx="2.797" transform="matrix(-.866025 -.5 0 1 0 0)" y="-12.548" x="-273.562" height="100.212" width="73" fill="#e9eaf2"/></g><defs ><path id="B" d="M166.9 240.27l-9.63-5.56c-.78-.45-.7-1.25.22-1.77l9.2-5.3a3.39 3.39 0 0 1 3.06-.13l9.62 5.56c.8.45.7 1.24-.22 1.77l-9.18 5.3a3.42 3.42 0 0 1-3.06.13z"/><path id="C" d="M194.14 256l-9.63-5.56c-.78-.45-.68-1.24.22-1.77l9.2-5.3a3.42 3.42 0 0 1 3.06-.13l9.63 5.56c.78.45.68 1.25-.22 1.77l-9.2 5.3a3.39 3.39 0 0 1-3.06.13z"/><path id="D" d="M207.76 263.87l-9.62-5.56c-.8-.45-.7-1.25.22-1.77l9.18-5.3a3.41 3.41 0 0 1 3.07-.13l9.62 5.56c.8.45.7 1.24-.22 1.77l-9.18 5.3a3.44 3.44 0 0 1-3.07.13z"/><path id="E" d="M262.27 295.33l-9.63-5.55c-.78-.46-.68-1.25.22-1.77l9.2-5.3a3.36 3.36 0 0 1 3.06-.13l9.63 5.56c.78.45.68 1.24-.22 1.76l-9.2 5.3a3.39 3.39 0 0 1-3.06.12z"/><path id="F" d="M303.14 318.93l-9.62-5.55c-.8-.46-.7-1.25.22-1.77l9.18-5.3a3.41 3.41 0 0 1 3.07-.13l9.62 5.56c.8.45.7 1.24-.22 1.76l-9.18 5.3a3.41 3.41 0 0 1-3.07.12z"/><path id="G" d="M228.4 291l-9.62-5.55c-.8-.46-.7-1.25.22-1.77l9.18-5.3a3.41 3.41 0 0 1 3.07-.12l9.62 5.55c.8.46.7 1.25-.22 1.77l-9.18 5.3a3.41 3.41 0 0 1-3.07.12z"/><path id="H" d="M232.43 308.6l-9.63-5.56c-.78-.45-.68-1.25.22-1.77l9.2-5.3a3.39 3.39 0 0 1 3.06-.13l9.63 5.56c.78.45.68 1.24-.22 1.77l-9.2 5.3a3.42 3.42 0 0 1-3.06.13z"/></defs></svg>