<svg xmlns="http://www.w3.org/2000/svg" width="1276" height="643" fill="none" xmlns:v="https://vecta.io/nano"><path d="M99.244 68.82l-.504.19-9.372 4.495c-1.248.6-2.206 1.672-2.664 2.98s-.38 2.742.22 4l4.503 9.367a5.2 5.2 0 0 0 6.959 2.443l9.372-4.5c2.6-1.26 3.69-4.343 2.443-6.956l-4.496-9.38c-.56-1.163-1.533-2.078-2.73-2.567a5.23 5.23 0 0 0-3.746-.083l.013.025zm-42.846 97.534l-.8.34-15.178 7.284c-1 .48-1.897 1.15-2.637 1.975s-1.31 1.79-1.68 2.835a8.43 8.43 0 0 0-.465 3.261c.06 1.107.34 2.19.82 3.2l7.293 15.108a8.43 8.43 0 0 0 1.981 2.633 8.44 8.44 0 0 0 6.102 2.133c1.107-.063 2.192-.343 3.19-.825l15.166-7.283c1-.48 1.897-1.15 2.637-1.976s1.31-1.788 1.68-2.834a8.43 8.43 0 0 0-.355-6.452l-7.287-15.17a8.44 8.44 0 0 0-4.02-3.994c-1.76-.828-3.753-1.023-5.64-.55a6.42 6.42 0 0 0-.819.252l.013.075zm-22.793 99.738l-1.29.536L7.75 278.413c-6.82 3.273-9.668 11.406-6.393 18.224l11.796 24.53c3.275 6.818 11.4 9.676 18.227 6.402l24.55-11.81c6.82-3.273 9.674-11.33 6.393-18.21l-11.796-24.532c-2.866-5.968-9.447-8.895-15.62-7.34l-1.3.415h.006zM1102.1 2.46L766.486 114.277c-24.752 8.246-38.04 34.81-29.778 59.55l111.88 335.43c8.25 24.74 34.83 38.022 59.58 29.775L1243.76 427.2c24.76-8.183 38.04-34.81 29.8-59.55L1161.67 32.215c-1.95-5.873-5.03-11.304-9.08-15.982s-8.98-8.5-14.52-11.276S1126.5.545 1120.33.114a47.03 47.03 0 0 0-18.24 2.332v.013zM166.287 308.333c-.446.158-.882.345-1.303.56l-18.215 8.738c-6.9 3.31-9.78 11.52-6.468 18.406l8.755 18.212c3.312 6.886 11.525 9.757 18.41 6.452l18.22-8.813c6.9-3.31 9.762-11.52 6.46-18.407l-8.817-18.205c-2.897-6.024-9.548-8.983-15.777-7.415a27.21 27.21 0 0 0-1.335.396l.07.076zm352.09-95.004c-3.837 1.443-7 4.262-8.87 7.908a16.49 16.49 0 0 0-1.252 11.814l22.36 84.007c2.355 8.863 11.4 14.1 20.255 11.746l83.985-22.36a16.52 16.52 0 0 0 11.752-20.251l-22.358-84.006c-2.356-8.864-11.337-14.09-20.267-11.734l-84.05 22.347c-.554.145-1.096.315-1.618.516l.063.013zM393.53 277.173c-.27.107-.542.207-.8.34l-15.166 7.283a8.44 8.44 0 0 0-4.317 4.81c-.367 1.046-.525 2.154-.465 3.26a8.43 8.43 0 0 0 .821 3.191l7.293 15.108a8.44 8.44 0 0 0 1.979 2.634c.827.74 1.792 1.31 2.84 1.676a8.46 8.46 0 0 0 3.264.461c1.107-.063 2.192-.343 3.19-.824l15.166-7.284c1-.48 1.897-1.15 2.638-1.975s1.31-1.79 1.68-2.835a8.43 8.43 0 0 0 .465-3.261 8.44 8.44 0 0 0-.82-3.19l-7.293-15.108c-1.776-3.69-5.845-5.496-9.655-4.533-.278.063-.548.15-.82.252v-.006zM25.688 414.593c-.27.107-.535.207-.8.34l-15.166 7.283c-1 .48-1.897 1.15-2.637 1.975a8.44 8.44 0 0 0-1.679 2.835 8.43 8.43 0 0 0-.465 3.261 8.44 8.44 0 0 0 .82 3.191l7.293 15.108c2.028 4.217 7.054 5.98 11.26 3.947l15.116-7.3c4.22-2.027 5.983-7.05 3.95-11.255l-7.287-15.17c-.84-1.753-2.257-3.162-4.015-4a8.44 8.44 0 0 0-5.634-.555c-.277.063-.548.144-.82.25l.063.07zM323.89 357.76c-.94.303-1.86.667-2.752 1.09l-72.27 34.717a19.26 19.26 0 0 0-6.041 4.517c-1.697 1.89-3.003 4.094-3.844 6.49a19.26 19.26 0 0 0-1.057 7.466c.143 2.534.786 5.015 1.892 7.3l34.728 72.24c1.094 2.3 2.63 4.34 4.52 6.035s4.095 3 6.49 3.84a19.28 19.28 0 0 0 7.467 1.056 19.29 19.29 0 0 0 7.301-1.89l72.277-34.723c2.29-1.094 4.338-2.63 6.032-4.517s2.997-4.09 3.837-6.484a19.24 19.24 0 0 0 1.056-7.459c-.143-2.53-.784-5-1.887-7.293l-34.722-72.235c-2.897-6.024-8.483-9.87-14.61-10.765a19.37 19.37 0 0 0-8.415.63v-.013zm-174.35 69.044c-.27.107-.536.208-.794.34l-15.115 7.29c-4.22 2.027-5.984 7.05-3.95 11.27l7.293 15.158a8.44 8.44 0 0 0 4.812 4.314 8.44 8.44 0 0 0 3.263.465 8.43 8.43 0 0 0 3.192-.82l15.166-7.29c1-.48 1.897-1.15 2.637-1.976s1.312-1.788 1.68-2.834a8.43 8.43 0 0 0 .465-3.261c-.06-1.107-.34-2.192-.82-3.19l-7.294-15.108a8.42 8.42 0 0 0-9.655-4.532 5.54 5.54 0 0 0-.818.251l-.063-.075zm298.027-89.39c-.44.15-.87.34-1.29.554l-24.55 11.784c-6.82 3.273-9.674 11.33-6.393 18.21l11.796 24.538c3.275 6.818 11.4 9.676 18.227 6.402l24.55-11.8a13.62 13.62 0 0 0 6.386-18.224l-11.796-24.532c-2.866-5.967-9.447-8.895-15.62-7.34l-.007-.012-1.322.4.02.02zm-347.94 185.2c-.44.157-.882.346-1.304.566L77.44 533.2c-6.9 3.312-9.762 11.52-6.462 18.407l10.033 20.868a13.78 13.78 0 0 0 18.409 6.471l20.89-10.034c6.9-3.31 9.762-11.52 6.456-18.407l-10.033-20.874a13.78 13.78 0 0 0-15.783-7.415 27.55 27.55 0 0 0-1.329.396l.006.013zm543.163-101.38a28.51 28.51 0 0 0-2.394.869l-131.2 55.377c-12.678 5.35-18.566 19.867-13.207 32.545l55.405 131.106a24.81 24.81 0 0 0 32.561 13.219l131.177-55.396c12.68-5.35 18.567-19.86 13.214-32.526l-55.424-131.112c-5.02-11.88-18.088-17.796-30.15-14.082h.007zM392.428 554.247c-.662.214-1.26.428-1.965.756l-18.22 8.813c-6.9 3.31-9.762 11.52-6.455 18.406l8.817 18.205c1.534 3.21 4.254 5.697 7.587 6.94s7.02 1.146 10.28-.273l.22-.082.328-.107 18.22-8.813a13.77 13.77 0 0 0 6.456-18.413l-8.742-18.192c-.975-2.042-2.438-3.81-4.26-5.154s-3.945-2.217-6.183-2.545a13.73 13.73 0 0 0-6.015.472l-.07-.013zm-182.306 66.77l-.504.19-9.37 4.5c-2.608 1.26-3.697 4.344-2.444 6.956l4.503 9.367c1.26 2.606 4.346 3.695 6.96 2.443l9.37-4.5c2.6-1.26 3.697-4.344 2.444-6.956l-4.497-9.38a5.23 5.23 0 0 0-2.728-2.567c-1.196-.5-2.53-.52-3.746-.083l.012.03zm126.485-26.49a10.37 10.37 0 0 0-1.303.566l-41.67 20.02c-6.9 3.31-9.762 11.52-6.462 18.406l20.016 41.654c3.313 6.887 11.525 9.757 18.416 6.46l41.674-20.006c6.9-3.31 9.762-11.52 6.456-18.406l-20.016-41.654c-2.897-6.025-9.548-8.99-15.783-7.416l-.006-.012c-.448.12-.894.253-1.335.396l.012-.006z" fill="#dbe2e9" fill-opacity=".2"/></svg>