<svg width="300" height="122" viewBox="0 0 300 122" fill="none" xmlns="http://www.w3.org/2000/svg">
<path d="M122.471 94.2457C121.551 94.2457 120.639 94.0924 119.734 93.7864C118.83 93.4801 118.178 93.1369 117.779 92.7563L118.998 90.6787C119.32 90.9569 119.819 91.2492 120.494 91.5555C121.184 91.8467 121.843 91.9923 122.473 91.9923C123.285 91.9923 123.945 91.81 124.451 91.4455C124.972 91.0809 125.233 90.5778 125.233 89.9368C125.233 89.4414 125.095 89.0114 124.818 88.6466C124.542 88.282 124.205 87.9834 123.806 87.7504C123.416 87.5027 122.848 87.2038 122.104 86.854C121.229 86.4459 120.632 86.1397 120.309 85.9355C118.822 84.9874 118.078 83.6745 118.078 81.9971C118.078 80.6116 118.565 79.5541 119.541 78.8239C120.517 78.0798 121.736 77.7076 123.2 77.7076C124.781 77.7076 126.122 78.1378 127.225 78.9978L126.005 80.9879C125.713 80.6967 125.298 80.449 124.761 80.2448C124.24 80.0258 123.681 79.9164 123.083 79.9164C122.316 79.9164 121.71 80.0834 121.265 80.4174C120.836 80.7384 120.621 81.2196 120.621 81.8606C120.621 82.3125 120.759 82.7206 121.035 83.0854C121.311 83.4352 121.656 83.7412 122.07 84.004C122.499 84.2664 123.075 84.5875 123.797 84.9671C124.487 85.3316 125.016 85.6239 125.384 85.8438C125.751 86.0478 126.096 86.2955 126.418 86.587C126.863 86.9579 127.224 87.4098 127.501 87.9424C127.777 88.4676 127.915 89.0437 127.915 89.671C127.915 90.6479 127.678 91.4793 127.203 92.1649C126.744 92.8516 126.1 93.3694 125.271 93.7182C124.458 94.068 123.53 94.2428 122.487 94.2428L122.471 94.2457Z" fill="#A2A2A2"/>
<path d="M136.519 83.7277C135.415 83.7277 134.442 83.9572 133.6 84.4239C132.757 84.8905 132.105 85.5266 131.645 86.3283C131.2 87.1307 130.978 88.0112 130.978 88.9736C130.978 89.9504 131.209 90.842 131.67 91.6437C132.13 92.4454 132.781 93.0765 133.624 93.5431C134.467 94.0098 135.43 94.2443 136.519 94.2443C137.607 94.2443 138.565 94.0098 139.394 93.5431C140.239 93.0765 140.89 92.4454 141.349 91.6437C141.809 90.842 142.04 89.9504 142.04 88.9736C142.04 88.0105 141.809 87.13 141.349 86.3283C140.904 85.5266 140.262 84.8905 139.419 84.4239C138.592 83.9572 137.624 83.7277 136.519 83.7277ZM136.45 85.652C137.354 85.652 138.081 85.9805 138.633 86.6365C139.185 87.2776 139.464 88.07 139.464 89.0183C139.464 89.9656 139.204 90.7529 138.683 91.3802C138.177 92.0075 137.479 92.32 136.589 92.32V92.325C135.7 92.325 134.973 92.0123 134.405 91.3853C133.837 90.7442 133.555 89.9567 133.555 89.0234C133.555 88.0603 133.815 87.2539 134.336 86.6118C134.872 85.9697 135.575 85.6521 136.45 85.6521V85.652Z" fill="#A2A2A2"/>
<path d="M145.104 77.8497H147.566V94.2442H145.104V77.8497Z" fill="#A2A2A2"/>
<path d="M154.448 94.2441C152.992 94.2441 151.987 93.8365 151.434 93.0196C150.896 92.2026 150.629 91.0654 150.629 89.6069V83.9844H153.112V89.0155C153.112 89.8464 153.156 90.4964 153.25 90.9638C153.356 91.4162 153.542 91.7518 153.835 91.9702C154.128 92.1886 154.596 92.2986 155.192 92.2986C155.632 92.2948 156.063 92.1744 156.436 91.9506C156.837 91.7197 157.156 91.4037 157.402 91.0099C157.662 90.602 157.792 90.1568 157.792 89.6738V83.9872H160.254V94.2441H158.23L157.937 92.5741C157.554 93.1308 157.071 93.5652 156.474 93.8434C155.906 94.1217 155.215 94.2609 154.403 94.2609L154.448 94.2441Z" fill="#A2A2A2"/>
<path d="M172.295 93.281C172.002 93.4852 171.611 93.682 171.122 93.8712C170.646 94.0568 170.11 94.1729 169.512 94.2192C169.573 94.4084 169.719 94.6418 169.951 94.9193C170.211 95.2533 170.403 95.5593 170.526 95.8378C170.662 96.1161 170.731 96.4593 170.731 96.8676C170.731 97.8735 170.417 98.6095 169.788 99.0764C169.174 99.5588 168.33 99.7999 167.256 99.7999C166.889 99.7999 166.474 99.7628 166.013 99.6887L166.217 97.654C166.432 97.6818 166.647 97.6958 166.861 97.6958C167.95 97.6958 168.494 97.3676 168.494 96.7118C168.494 96.5817 168.464 96.4427 168.402 96.2943C168.341 96.1642 168.279 96.0547 168.218 95.9659C168.172 95.8916 168.141 95.8452 168.126 95.8266C167.989 95.6372 167.874 95.4549 167.78 95.2798C167.702 95.0942 167.663 94.8974 167.663 94.6897C167.663 94.4577 167.694 94.2828 167.755 94.165C166.436 93.946 165.363 93.3773 164.536 92.4587C163.723 91.5252 163.317 90.3368 163.317 88.893C163.317 87.8576 163.539 86.9528 163.984 86.1792C164.443 85.3905 165.079 84.7856 165.892 84.3642C166.722 83.9414 167.673 83.7298 168.746 83.7298C169.559 83.7298 170.256 83.8319 170.839 84.0358C171.437 84.2252 171.905 84.4663 172.244 84.7596L171.14 86.6621C170.497 86.0498 169.768 85.7436 168.955 85.7436C167.974 85.7436 167.223 86.0279 166.702 86.5967C166.194 87.1654 165.941 87.9238 165.941 88.8721C165.941 89.9511 166.201 90.7894 166.722 91.3869C167.259 91.9844 168.003 92.2833 168.954 92.2833C169.429 92.2833 169.889 92.2184 170.334 92.0883C170.795 91.9585 171.147 91.8055 171.392 91.629L172.295 93.281Z" fill="#A2A2A2"/>
<path d="M180.906 83.7227C179.802 83.7227 178.825 83.9569 177.982 84.4238C177.139 84.8905 176.488 85.5268 176.027 86.3282C175.582 87.1309 175.36 88.0114 175.36 88.9735C175.36 89.9506 175.591 90.842 176.052 91.6437C176.512 92.4451 177.164 93.0762 178.006 93.5431C178.848 94.009 179.819 94.2435 180.906 94.2442C181.992 94.2435 182.948 94.009 183.776 93.5431C184.619 93.0762 185.275 92.4451 185.736 91.6437C186.195 90.842 186.422 89.9506 186.422 88.9735C186.422 88.0104 186.195 87.1299 185.736 86.3282C185.291 85.5268 184.644 84.8905 183.801 84.4238C182.974 83.9569 182.011 83.7227 180.906 83.7227ZM180.832 85.647C181.736 85.647 182.468 85.9755 183.02 86.6315C183.572 87.2726 183.846 88.0699 183.846 89.0183C183.846 89.9653 183.586 90.7531 183.065 91.3801C182.559 92.0074 181.861 92.3199 180.971 92.3199C180.082 92.3199 179.355 92.0074 178.787 91.3801C178.219 90.7391 177.937 89.9518 177.937 89.0183C177.937 88.0554 178.197 87.2537 178.718 86.6117C179.254 85.9696 179.957 85.647 180.832 85.647Z" fill="#A2A2A2"/>
<path d="M182.378 81.9092C181.917 81.9092 181.556 81.8443 181.295 81.7145C181.051 81.5846 180.806 81.3991 180.559 81.1577C180.364 80.9535 180.18 80.8005 180.007 80.6984C179.812 80.6058 179.582 80.5594 179.319 80.5594C179.059 80.5594 178.79 80.6613 178.514 80.8654C178.254 81.0696 178.024 81.3833 177.826 81.8064L176.768 80.2753C176.905 79.8237 177.189 79.4153 177.62 79.0508C178.065 78.6859 178.617 78.5037 179.277 78.5037C179.722 78.5037 180.083 78.5765 180.36 78.7224C180.652 78.8522 180.906 79.0345 181.121 79.2692C181.335 79.4881 181.53 79.6488 181.706 79.7506C181.905 79.8435 182.143 79.8899 182.419 79.8899C182.695 79.8899 182.971 79.7878 183.247 79.5836C183.54 79.3647 183.785 79.0368 183.983 78.5999L185.041 80.1529C184.98 80.3848 184.819 80.6401 184.558 80.9184C184.315 81.1967 183.992 81.438 183.593 81.6422C183.209 81.8313 182.803 81.926 182.373 81.926L182.378 81.9092Z" fill="#A2A2A2"/>
<path d="M194.952 83.7227C193.911 83.7227 192.976 83.9409 192.147 84.3791C191.319 84.8019 190.668 85.4172 190.192 86.2188C189.732 87.0213 189.501 87.9539 189.501 89.0183C189.501 89.9663 189.693 90.842 190.083 91.6437C190.482 92.4293 191.105 93.0604 191.948 93.5431C192.78 94.0098 193.828 94.2442 195.097 94.2442H195.112C196.047 94.2442 196.845 94.1514 197.504 93.9658C198.165 93.7896 198.687 93.5861 199.071 93.3542L198.31 91.6835C197.911 91.8874 197.472 92.0489 196.997 92.1658C196.521 92.2826 195.917 92.3398 195.181 92.3398C194.293 92.3398 193.595 92.1414 193.087 91.7481C192.597 91.3555 192.266 90.7143 192.098 89.8238H199.688C199.734 89.4007 199.757 88.9939 199.757 88.6006C199.757 87.0548 199.361 85.8568 198.564 85.0106C197.781 84.1506 196.578 83.7227 194.953 83.7227H194.952ZM194.868 85.7266C195.665 85.7266 196.279 85.9123 196.708 86.2835C197.138 86.648 197.346 87.2794 197.33 88.1829L192.088 88.1979C192.333 86.55 193.258 85.7267 194.868 85.7267V85.7266Z" fill="#A2A2A2"/>
<path d="M206.787 94.2441C206.052 94.2441 205.285 94.1514 204.487 93.9659C203.704 93.7767 203.145 93.5575 202.808 93.309L203.637 91.4495C204.556 92.0621 205.607 92.3681 206.787 92.3681C207.958 92.3681 208.544 92.0402 208.544 91.3841C208.544 91.0929 208.422 90.867 208.178 90.7064C207.934 90.546 207.497 90.3604 206.867 90.1496L205.993 89.8436C205.073 89.4938 204.344 89.0781 203.808 88.5967C203.271 88.101 203.003 87.4515 203.003 86.6481C203.003 85.7204 203.378 85.006 204.13 84.505C204.897 83.9798 205.921 83.717 207.203 83.717C207.831 83.717 208.445 83.7822 209.043 83.9121C209.657 84.0419 210.126 84.2089 210.448 84.4131L209.548 86.3057C209.348 86.1165 209.027 85.9559 208.582 85.8242C208.152 85.6786 207.665 85.6058 207.118 85.6058C206.029 85.6058 205.485 85.9195 205.485 86.5465C205.485 86.8963 205.631 87.1664 205.924 87.3566C206.217 87.5422 206.692 87.7387 207.349 87.9467C207.411 87.9615 207.648 88.0417 208.062 88.1873C209.044 88.5521 209.772 88.9676 210.247 89.4345C210.722 89.9012 210.96 90.5043 210.96 91.2436C210.96 92.2365 210.561 92.988 209.764 93.4982C208.982 94.0086 207.985 94.2637 206.774 94.2637L206.787 94.2441Z" fill="#A2A2A2"/>
<path d="M221.304 77.8504L221.309 94.2443H225.517C227.696 94.2443 229.451 93.8444 230.785 93.0409C232.134 92.2375 233.102 91.202 233.684 89.9382C234.267 88.6607 234.555 87.2695 234.555 85.7664C234.555 83.6103 233.871 81.754 232.506 80.1924C231.167 78.631 228.793 77.8504 225.378 77.8504H221.304ZM223.881 80.0333H225.791C227.881 80.0333 229.416 80.5786 230.392 81.6642C231.367 82.7497 231.854 84.1549 231.854 85.8808C231.854 87.6509 231.367 89.1216 230.392 90.2962C229.442 91.4558 227.908 92.0365 225.791 92.0365H223.881V80.0333Z" fill="#A2A2A2"/>
<path d="M237.617 83.7242H240.193V94.2457H237.617V83.7242ZM238.882 82.1056C238.66 82.1127 238.438 82.0763 238.231 81.9986C238.024 81.921 237.836 81.8036 237.678 81.6539C237.521 81.5042 237.397 81.3255 237.316 81.1285C237.234 80.9317 237.196 80.7209 237.203 80.5093C237.203 80.1015 237.35 79.7507 237.686 79.4599C238.023 79.1689 238.406 79.0228 238.882 79.0228C239.098 79.0185 239.313 79.0549 239.515 79.1297C239.716 79.2048 239.9 79.3169 240.056 79.4599C240.377 79.7382 240.539 80.0999 240.539 80.5093C240.544 80.7201 240.504 80.9296 240.421 81.1252C240.338 81.3209 240.213 81.4981 240.056 81.6463C239.763 81.9526 239.358 82.1056 238.882 82.1056V82.1056Z" fill="#A2A2A2"/>
<path d="M249.012 99.278C248.226 99.2775 247.445 99.1747 246.689 98.9718C245.938 98.7673 245.401 98.5779 245.079 98.4012L245.631 96.2133C246.644 96.8396 247.747 97.1543 248.943 97.1543C249.865 97.1543 250.638 96.9427 251.266 96.5196C251.893 96.0965 252.217 95.2726 252.232 94.0478V92.2525C251.909 92.8233 251.389 93.2963 250.666 93.6749C249.933 94.0573 249.109 94.2533 248.273 94.2441C247.351 94.2441 246.509 94.0326 245.741 93.6094C244.974 93.1726 244.368 92.5519 243.923 91.7502C243.478 90.9485 243.256 90.0147 243.256 88.95C243.256 87.9299 243.461 87.0254 243.876 86.2362C244.279 85.4615 244.911 84.8151 245.694 84.3769C246.475 83.9398 247.389 83.7198 248.431 83.7198C249.045 83.7198 249.619 83.8214 250.158 84.0261C250.696 84.2308 251.147 84.4854 251.514 84.7916C251.898 85.0699 252.151 85.3762 252.275 85.6684L252.319 83.7198H254.665V93.9562C254.665 95.6624 254.206 96.9761 253.285 97.8946C252.365 98.8132 250.939 99.2864 249.007 99.2864L249.012 99.278ZM248.968 92.2568C249.378 92.2655 249.785 92.1945 250.165 92.0478C250.545 91.9009 250.889 91.6817 251.176 91.4037C251.776 90.8192 252.073 90.0621 252.073 89.1282V88.989C252.073 88.3627 251.936 87.8006 251.659 87.3189C251.383 86.8375 251.008 86.4365 250.532 86.1595C250.057 85.8825 249.537 85.742 248.967 85.742C247.986 85.742 247.225 86.0483 246.689 86.6606C246.152 87.2591 245.884 88.0524 245.884 89.0015C245.884 89.9786 246.145 90.7731 246.666 91.3856C247.203 91.9839 247.968 92.2818 248.967 92.2818L248.968 92.2568Z" fill="#A2A2A2"/>
<path d="M257.728 83.7242H260.305V94.2457H257.728V83.7242ZM258.994 82.1056C258.772 82.1127 258.551 82.0763 258.342 81.9986C258.136 81.921 257.947 81.8036 257.789 81.6539C257.634 81.5042 257.509 81.3255 257.428 81.1285C257.346 80.9317 257.308 80.7209 257.316 80.5093C257.316 80.1015 257.461 79.7507 257.797 79.4599C258.136 79.1689 258.518 79.0228 258.994 79.0228C259.21 79.0185 259.424 79.0549 259.625 79.1297C259.829 79.2048 260.013 79.3169 260.168 79.4599C260.489 79.7382 260.652 80.0999 260.652 80.5093C260.657 80.7201 260.616 80.9296 260.532 81.1252C260.451 81.3209 260.326 81.4981 260.168 81.6463C259.875 81.9526 259.47 82.1056 258.994 82.1056V82.1056Z" fill="#A2A2A2"/>
<path d="M265.232 85.6488H263.368V83.7242H265.232V79.8968L267.738 79.3723V83.7255H270.178V85.6504H267.738V94.2469H265.232V85.6488Z" fill="#A2A2A2"/>
<path d="M276.908 83.7227C275.851 83.7227 274.929 83.9422 274.147 84.3791C273.363 84.8162 272.759 85.4312 272.332 86.2188C271.916 87.0053 271.71 87.9241 271.71 88.9735C271.71 90.0382 271.945 90.9713 272.421 91.773C272.913 92.5606 273.556 93.1759 274.356 93.6127C275.166 94.0353 276.073 94.2506 276.997 94.2442H277.002C277.863 94.2442 278.637 94.0513 279.325 93.6575C280.015 93.2484 280.493 92.7797 280.752 92.2553L280.797 94.2442H283.145V83.7227H280.772L280.728 85.6719C280.608 85.3796 280.358 85.075 279.992 84.7967C279.625 84.4905 279.176 84.2357 278.639 84.031C278.099 83.8266 277.524 83.7227 276.908 83.7227H276.908ZM277.41 85.7614C277.98 85.7614 278.5 85.9021 278.977 86.1791C279.453 86.456 279.828 86.8559 280.106 87.3376C280.381 87.819 280.519 88.3821 280.519 89.0083V89.1476C280.519 90.0816 280.209 90.8404 279.623 91.4249C279.336 91.7032 278.988 91.9197 278.609 92.0663C278.229 92.2132 277.825 92.2838 277.415 92.2752L277.41 92.3001C276.427 92.3001 275.649 92.0036 275.112 91.4051C274.59 90.7928 274.331 90.0004 274.331 89.0233C274.331 88.0742 274.599 87.2799 275.137 86.6814C275.656 86.0691 276.429 85.7615 277.41 85.7615L277.41 85.7614Z" fill="#A2A2A2"/>
<path d="M286.208 83.7242H288.782V94.2457H286.208V83.7242ZM287.471 82.1056C287.249 82.1127 287.028 82.0763 286.819 81.9986C286.613 81.921 286.424 81.8036 286.266 81.6539C286.111 81.5042 285.986 81.3255 285.905 81.1285C285.823 80.9317 285.785 80.7209 285.793 80.5093C285.793 80.1015 285.938 79.7507 286.277 79.4599C286.613 79.1689 286.995 79.0228 287.471 79.0228C287.687 79.0185 287.901 79.0549 288.102 79.1297C288.306 79.2048 288.49 79.3169 288.645 79.4599C288.966 79.7382 289.129 80.0999 289.129 80.5093C289.134 80.7201 289.093 80.9296 289.009 81.1252C288.928 81.3209 288.803 81.4981 288.645 81.6463C288.352 81.9526 287.947 82.1056 287.471 82.1056V82.1056Z" fill="#A2A2A2"/>
<path d="M295.826 94.2456C295.09 94.2456 294.323 94.1573 293.524 93.9811C292.742 93.7917 292.181 93.5728 291.845 93.3243L292.673 91.4648C293.595 92.0773 294.644 92.3833 295.826 92.3833C296.995 92.3833 297.58 92.0554 297.58 91.3994C297.58 91.1081 297.458 90.8821 297.214 90.7217C296.972 90.5613 296.534 90.3709 295.905 90.1512L295.029 89.8449C294.109 89.4951 293.381 89.0794 292.846 88.5979C292.309 88.1025 292.039 87.4531 292.039 86.6496C292.039 85.7216 292.416 85.0073 293.167 84.5062C293.934 83.981 294.957 83.7186 296.241 83.7186C296.867 83.7186 297.481 83.7835 298.079 83.9133C298.693 84.0432 299.162 84.2102 299.485 84.4143L298.589 86.296C298.388 86.1068 298.067 85.9462 297.621 85.8146C297.193 85.6687 296.704 85.5959 296.159 85.5959C295.069 85.5959 294.524 85.9095 294.524 86.5368C294.524 86.8866 294.672 87.1565 294.965 87.3467C295.258 87.5231 295.731 87.7196 296.389 87.9368C296.452 87.9518 296.689 88.032 297.102 88.1776C298.085 88.5422 298.813 88.9579 299.287 89.4246C299.763 89.8912 300 90.4898 300 91.2199C300 92.2128 299.602 92.9643 298.805 93.4745C298.021 93.9847 297.025 94.24 295.816 94.24L295.826 94.2456Z" fill="#A2A2A2"/>
<path d="M277.02 21.2648L300 67.3334H291.766L287.745 58.5943H266.197L262.177 67.3334H254.237L277.02 21.2648ZM284.936 52.4623L277.084 35.4064L269.105 52.4623H284.936Z" fill="#00B6FF"/>
<path d="M117.781 21.2686H130.123C137.066 21.2686 141.686 22.376 143.983 24.5909C146.268 26.8058 147.411 29.4799 147.411 32.6134C147.411 34.703 146.927 36.6879 145.96 38.5684C144.993 40.4064 143.455 41.7907 141.346 42.7212C144.422 43.1809 146.7 44.4137 148.182 46.419C149.675 48.3836 150.422 50.6817 150.422 53.3129C150.422 55.9876 149.983 58.3279 149.104 60.3332C148.226 62.3387 146.403 64.01 143.636 65.3474C140.868 66.6715 136.869 67.3335 131.64 67.3335H117.779L117.781 21.2686ZM131.292 40.8234C134.413 40.8234 136.632 40.1133 137.949 38.6929C139.266 37.2302 139.924 35.3916 139.924 33.1767C139.924 29.2067 136.937 27.2217 130.962 27.2217H125.03V40.8234H131.292ZM132.61 61.4436C136.61 61.4436 139.29 60.6913 140.651 59.1866C142.044 57.6412 142.74 55.6983 142.74 53.358C142.74 51.1433 141.949 49.4303 140.366 48.2193C138.784 47.0072 136.389 46.4009 133.182 46.4009H125.009V61.442L132.61 61.4436Z" fill="#00B6FF"/>
<path d="M177.27 21.2648L200.248 67.3334H192.015L187.994 58.5943H166.485L162.463 67.3334H154.485L177.27 21.2648ZM185.184 52.4623L177.332 35.4064L169.354 52.4623H185.184Z" fill="#00B6FF"/>
<path d="M208.064 21.2648H215.212V67.3334H208.064V21.2648Z" fill="#00B6FF"/>
<path d="M235.026 27.1944H223.026V21.2648H254.237V27.1944H242.11V67.3154H235.027L235.026 27.1944Z" fill="#00B6FF"/>
<path d="M28.4276 0C25.9044 4.12839e-05 23.4843 1.00247 21.7001 2.78676C19.9156 4.57107 18.9132 6.99108 18.9132 9.51446V49.8196L46.377 49.8177C49.6481 49.8179 52.8873 49.1739 55.9095 47.9223C58.9315 46.6705 61.6777 44.8359 63.9908 42.5231C66.3038 40.2101 68.1386 37.4641 69.3907 34.4421C70.6425 31.4201 71.2868 28.1809 71.2868 24.9098C71.2868 21.6387 70.6425 18.3997 69.3907 15.3776C68.1386 12.3555 66.3038 9.60957 63.9908 7.29665C61.6777 4.9837 58.9315 3.14906 55.9095 1.89743C52.8873 0.645797 49.6481 0.00171405 46.377 0.00195297L28.4276 0Z" fill="url(#paint0_linear_2_46)"/>
<path d="M18.9154 15.548V70.9426H22.4086V77.7851H18.9154V81.977H20.4735V90.7435H18.9154V96.1555C18.9154 109.912 30.0671 121.063 43.8235 121.064H63.2918C85.5496 121.063 103.593 103.02 103.593 80.7625C103.593 58.505 85.5496 40.4616 63.2918 40.4616L43.8235 40.4561C40.5524 40.4561 37.3134 39.8118 34.2915 38.56C31.2695 37.3082 28.5237 35.4736 26.2107 33.1605C23.8979 30.8477 22.0631 28.1018 20.8113 25.0798C19.5597 22.0578 18.9154 18.8189 18.9154 15.5479V15.548ZM49.5903 67.061H76.9879V94.4587H49.5903V67.061ZM28.8574 69.9222H42.5591V83.6182H28.8574V69.9222ZM24.6989 87.5941H35.6556V98.5509H24.6989V87.5941Z" fill="url(#paint1_linear_2_46)"/>
<path d="M18.9135 90.7416V81.9749H11.7048V90.7416H18.9135Z" fill="url(#paint2_linear_2_46)"/>
<path d="M18.9134 77.7885V70.9404H15.5587V77.7885H18.9134Z" fill="url(#paint3_linear_2_46)"/>
<path d="M11.1454 54.6653V56.911H13.3912V54.6653H11.1454Z" fill="#5C75FF"/>
<path d="M6.51001 58.4195V61.2253H9.3158V58.4195H6.51001Z" fill="#6F67FF"/>
<path d="M2.47302 63.7705V67.2748H5.98302V63.7705H2.47302Z" fill="url(#paint4_linear_2_46)"/>
<path d="M7.39734 68.944V73.3302H11.7779V68.944H7.39734Z" fill="url(#paint5_linear_2_46)"/>
<path d="M0 71.2452V73.491H2.24018V71.2452H0Z" fill="url(#paint6_linear_2_46)"/>
<path d="M1.56384 76.3798V81.8584H7.04238V76.3798H1.56384Z" fill="url(#paint7_linear_2_46)"/>
<path d="M7.31921 85.1411V86.9377H9.1158V85.1411H7.31921Z" fill="url(#paint8_linear_2_46)"/>
<path d="M8.0658 64.3497V65.8383H9.5542V64.3497H8.0658Z" fill="#7563FF"/>
<defs>
<linearGradient id="paint0_linear_2_46" x1="32.4321" y1="34.2215" x2="61.283" y2="9.61528" gradientUnits="userSpaceOnUse">
<stop stop-color="#4036C1"/>
<stop offset="0.98" stop-color="#539EFF"/>
</linearGradient>
<linearGradient id="paint1_linear_2_46" x1="28.1194" y1="108.246" x2="82.7138" y2="58.3791" gradientUnits="userSpaceOnUse">
<stop stop-color="#8855FF"/>
<stop offset="1" stop-color="#00B6FF"/>
</linearGradient>
<linearGradient id="paint2_linear_2_46" x1="28.1799" y1="110.392" x2="82.7743" y2="60.5255" gradientUnits="userSpaceOnUse">
<stop stop-color="#8855FF"/>
<stop offset="1" stop-color="#00B6FF"/>
</linearGradient>
<linearGradient id="paint3_linear_2_46" x1="28.1798" y1="110.392" x2="82.7742" y2="60.5255" gradientUnits="userSpaceOnUse">
<stop stop-color="#8855FF"/>
<stop offset="1" stop-color="#00B6FF"/>
</linearGradient>
<linearGradient id="paint4_linear_2_46" x1="28.1195" y1="110.392" x2="82.7139" y2="60.5255" gradientUnits="userSpaceOnUse">
<stop stop-color="#8855FF"/>
<stop offset="1" stop-color="#00B6FF"/>
</linearGradient>
<linearGradient id="paint5_linear_2_46" x1="28.1199" y1="110.392" x2="82.7142" y2="60.5255" gradientUnits="userSpaceOnUse">
<stop stop-color="#8855FF"/>
<stop offset="1" stop-color="#00B6FF"/>
</linearGradient>
<linearGradient id="paint6_linear_2_46" x1="28.1196" y1="110.392" x2="82.7139" y2="60.5255" gradientUnits="userSpaceOnUse">
<stop stop-color="#8855FF"/>
<stop offset="1" stop-color="#00B6FF"/>
</linearGradient>
<linearGradient id="paint7_linear_2_46" x1="28.1199" y1="110.392" x2="82.7142" y2="60.5252" gradientUnits="userSpaceOnUse">
<stop stop-color="#8855FF"/>
<stop offset="1" stop-color="#00B6FF"/>
</linearGradient>
<linearGradient id="paint8_linear_2_46" x1="28.1193" y1="110.392" x2="82.7138" y2="60.5255" gradientUnits="userSpaceOnUse">
<stop stop-color="#8855FF"/>
<stop offset="1" stop-color="#00B6FF"/>
</linearGradient>
</defs>
</svg>
